<?xml version="1.0" encoding="utf-8"?>
<!-- Generator: Adobe Illustrator 27.5.0, SVG Export Plug-In . SVG Version: 6.00 Build 0)  -->
<svg version="1.1" xmlns="http://www.w3.org/2000/svg" xmlns:xlink="http://www.w3.org/1999/xlink" x="0px" y="0px"
	 viewBox="0 0 500 500" style="enable-background:new 0 0 500 500;" xml:space="preserve">
<g id="BACKGROUND">
	<rect style="fill:transparent;" width="500" height="500"/>
</g>
<g id="OBJECTS">
	<g>
		<g>
			<path style="fill:#EF6F6F;" d="M122.95,173.21c3.556,5.104,7.875,9.622,12.175,14.118c8.912,9.318,17.828,18.64,27.194,27.501
				c13.755-18.237,26.217-37.45,37.261-57.445c-2.666-1.648-6.637-5.067-9.302-6.714c-9.829,12.38-16.188,21.172-27.767,31.932
				c-6.942-6.387-11.486-14.165-16.568-22.306c-2.331-3.735-4.186-6.539-7.497-9.441c-3.311-2.902-10.111-3.88-14.208-2.268
				c-4.313,1.698-6.593,7.266-6.396,11.896C118.037,165.113,120.3,169.407,122.95,173.21z"/>
		</g>
		<g>
			<g>
				<path style="fill:#014273;" d="M196.75,155.838c1.053,0.203,2.11-0.245,3.089-0.682c2.014-0.9,4.154-1.909,5.274-3.81
					c1.15-1.952,0.973-4.445,1.994-6.466c1.193-2.36,3.883-3.816,4.668-6.341c0.487-1.566,0.139-3.255-0.211-4.857
					c-0.2-0.914-0.487-1.946-1.324-2.364c-0.819-0.409-1.795-0.045-2.634,0.32c-4.093,1.778-8.377,3.704-11.035,7.289
					c-2.384,3.215-3.194,7.444-5.844,10.443C193.587,150.402,193.764,155.263,196.75,155.838z"/>
			</g>
			<g>
				<path style="fill:#64BCD1;" d="M198.869,162.432c0.784-2.862,1.925-5.626,3.387-8.208c-3.505-2.186-7.01-4.373-10.515-6.559
					c-1.708,1.581-3.293,3.294-4.738,5.119C190.636,156.384,194.395,159.954,198.869,162.432z"/>
			</g>
			<g>
				<path style="fill:#014273;" d="M200.954,156.478c-0.074,0-0.148-0.021-0.213-0.067l-7.395-5.127
					c-0.17-0.118-0.212-0.352-0.094-0.522c0.118-0.169,0.352-0.212,0.522-0.094l7.396,5.127c0.17,0.118,0.212,0.352,0.094,0.522
					C201.19,156.422,201.073,156.478,200.954,156.478z"/>
			</g>
		</g>
		<g>
			<g>
				<polygon style="fill:#DCC2AB;" points="196.594,146.468 222.001,159.161 239.197,114.917 211.673,105.57 				"/>
			</g>
			<g>
				<polygon style="fill:#FFFFFF;" points="199.579,142.555 221.564,153.538 236.443,115.254 212.627,107.166 				"/>
			</g>
			<g>
				
					<rect x="223.077" y="103.846" transform="matrix(0.3306 -0.9438 0.9438 0.3306 46.2436 286.0104)" style="fill:#014273;" width="3.332" height="13.12"/>
			</g>
			<g>
				<path style="fill:#014273;" d="M230.871,116.691c-0.13,0-0.259-0.022-0.383-0.065l-13.746-4.815
					c-0.603-0.211-0.921-0.873-0.71-1.476l0.584-1.667c0.206-0.587,0.888-0.916,1.476-0.71l13.746,4.815
					c0.603,0.212,0.921,0.873,0.71,1.476l-0.584,1.667C231.801,116.379,231.362,116.691,230.871,116.691z M217.708,108.643
					c-0.173,0-0.328,0.11-0.385,0.273l-0.584,1.667c-0.075,0.212,0.038,0.446,0.25,0.52l13.746,4.815
					c0.21,0.075,0.448-0.042,0.52-0.249l0.584-1.668c0.074-0.212-0.038-0.445-0.25-0.52l-13.746-4.815
					C217.799,108.65,217.754,108.643,217.708,108.643z"/>
			</g>
			<g>
				<g>
					<g>
						<polygon style="fill:#014273;" points="224.716,118.921 214.034,114.709 214.291,114.053 224.986,118.246 						"/>
					</g>
					<g>
						<polygon style="fill:#014273;" points="230.365,124.406 212.981,117.394 213.238,116.74 230.644,123.723 						"/>
					</g>
					<g>
						<polygon style="fill:#014273;" points="229.255,127.135 211.959,120.003 212.214,119.352 229.533,126.454 						"/>
					</g>
					<g>
						<polygon style="fill:#014273;" points="228.15,129.852 210.94,122.602 211.194,121.953 228.426,129.173 						"/>
					</g>
				</g>
				<g>
					<g>
						<polygon style="fill:#014273;" points="219.251,132.544 208.838,127.963 209.09,127.32 219.517,131.883 						"/>
					</g>
					<g>
						<polygon style="fill:#014273;" points="224.75,138.206 207.806,130.596 208.057,129.955 225.023,137.536 						"/>
					</g>
					<g>
						<polygon style="fill:#014273;" points="223.663,140.879 206.803,133.155 207.053,132.516 223.934,140.212 						"/>
					</g>
					<g>
						<polygon style="fill:#014273;" points="222.58,143.542 205.803,135.704 206.053,135.067 222.85,142.877 						"/>
					</g>
				</g>
			</g>
		</g>
		<g>
			<path style="fill:#64BCD1;" d="M206.27,132.05c-1.151,0.273-2.332,0.422-3.515,0.444c-0.453,0.008-0.915-0.001-1.348,0.135
				c-0.371,0.117-0.7,0.336-1.029,0.543c-1.643,1.036-3.419,1.863-5.27,2.452c-0.434,0.138-0.879,0.267-1.257,0.522
				c-1.18,0.797-1.287,2.46-1.302,3.884c-0.011,1.06-0.04,2.137-0.364,3.146c-0.332,1.035-0.765,3.564-0.981,4.623
				c0.734,0.549,1.521,1.41,2.467,1.535c0.47,0.062,0.945-0.074,1.419-0.051c1.309,0.061,2.274,0.29,3.367-0.675
				c1.241-1.098,2.014-2.953,2.154-4.581c0.177-2.062-0.384-4.172,0.065-6.192c0.172-0.772,0.572-1.591,1.322-1.843
				c0.421-0.141,0.88-0.077,1.323-0.103C205.146,135.781,206.636,133.842,206.27,132.05z"/>
		</g>
	</g>
	<g>
		<g>
			<g>
				<path style="fill:#F3D866;" d="M110.564,324.711c-0.048,2.596-0.421,5.14-1.039,7.642c-4.854,19.66,10.55,38.544,30.801,38.544
					h173.821c19.175,0,37.994-6.087,53.043-17.971c3.091-2.441,6.432-4.611,9.759-6.52c11.487-6.588,24.388-12.26,31.593-23.371
					c11.591-17.873,3.695-41.716-6.57-60.382c-10.266-18.666-23.127-38.139-20.566-59.287c3.579-29.558,34.997-47.269,47.646-74.222
					c12.101-25.785,4.461-58.506-15.642-78.685c-20.103-20.179-50.688-28.125-78.826-23.707
					c-28.138,4.418-53.724,20.214-73.166,41.03c-20.717,22.182-35.644,50.487-61.158,66.926
					c-23.861,15.374-54.075,18.334-77.987,33.628c-18.209,11.646-31.8,30.31-37.296,51.214c-5.496,20.904-2.84,43.84,7.286,62.935
					C99.547,296.226,110.851,309.162,110.564,324.711z"/>
			</g>
			<g>
				<g>
					<rect x="149.25" y="45.306" style="fill:#CDF7F9;" width="179.124" height="315.368"/>
				</g>
				<g>
					<g>
						<rect x="150.222" y="45.759" style="fill:#FFFFFF;" width="179.124" height="21.893"/>
					</g>
					<g>
						<g>
							<rect x="162.526" y="60.053" style="fill:#64BCD1;" width="1.932" height="5.066"/>
						</g>
						<g>
							<rect x="166.315" y="58.786" style="fill:#64BCD1;" width="1.932" height="6.333"/>
						</g>
						<g>
							<rect x="170.104" y="57.7" style="fill:#64BCD1;" width="1.932" height="7.418"/>
						</g>
						<g>
							<rect x="173.893" y="56.253" style="fill:#64BCD1;" width="1.932" height="8.866"/>
						</g>
					</g>
					<g>
						<polygon style="fill:#64BCD1;" points="314.148,59.962 313.424,59.962 313.424,58.153 297.321,58.153 297.321,64.485 
							313.424,64.485 313.424,62.676 314.148,62.676 						"/>
					</g>
				</g>
				<g>
					
						<ellipse transform="matrix(0.1566 -0.9877 0.9877 0.1566 5.9044 401.6774)" style="fill:#FFFFFF;" cx="238.156" cy="197.381" rx="72.374" ry="72.373"/>
				</g>
				<g>
					<g>
						<rect x="150.222" y="337.605" style="fill:#FFFFFF;" width="179.124" height="23.521"/>
					</g>
					<g>
						<g>
							<path style="fill:#64BCD1;" d="M237.975,350.451h-4.342c-1.699,0-3.076-1.377-3.076-3.076v-3.257
								c0-1.699,1.377-3.076,3.076-3.076h4.342c1.699,0,3.076,1.377,3.076,3.076v3.257
								C241.051,349.074,239.674,350.451,237.975,350.451z"/>
						</g>
						<g>
							<path style="fill:#64BCD1;" d="M301.121,350.451h-4.342c-1.699,0-3.076-1.377-3.076-3.076v-3.257
								c0-1.699,1.377-3.076,3.076-3.076h4.342c1.699,0,3.076,1.377,3.076,3.076v3.257
								C304.197,349.074,302.82,350.451,301.121,350.451z"/>
						</g>
						<g>
							<path style="fill:#64BCD1;" d="M177.362,350.451h-4.342c-1.699,0-3.076-1.377-3.076-3.076v-3.257
								c0-1.699,1.377-3.076,3.076-3.076h4.342c1.699,0,3.076,1.377,3.076,3.076v3.257
								C180.438,349.074,179.061,350.451,177.362,350.451z"/>
						</g>
					</g>
				</g>
				<g>
					<g>
						<g>
							<path style="fill:#014273;" d="M317.864,375.03H162.369c-8.129,0-14.743-6.613-14.743-14.743V46.363
								c0-8.129,6.613-14.743,14.743-14.743h155.495c8.129,0,14.744,6.613,14.744,14.743v313.925
								C332.608,368.417,325.993,375.03,317.864,375.03z M162.369,37.049c-5.136,0-9.315,4.179-9.315,9.315v313.925
								c0,5.136,4.179,9.315,9.315,9.315h155.495c5.136,0,9.316-4.178,9.316-9.315V46.363c0-5.136-4.179-9.315-9.316-9.315H162.369z
								"/>
						</g>
					</g>
					<g>
						<g>
							<g>
								<path style="fill:#014273;" d="M317.328,353.378H162.905c-6.598,0-11.946-5.348-11.946-11.946v17.773
									c0,6.598,5.348,11.946,11.946,11.946h154.423c6.598,0,11.946-5.348,11.946-11.946v-17.773
									C329.274,348.029,323.926,353.378,317.328,353.378z"/>
							</g>
						</g>
						<g>
							<g>
								<path style="fill:#014273;" d="M317.328,35.5H162.905c-6.598,0-11.946,5.348-11.946,11.946v16.316
									c0-6.598,5.348-11.946,11.946-11.946h154.423c6.598,0,11.946,5.348,11.946,11.946V47.446
									C329.274,40.848,323.926,35.5,317.328,35.5z"/>
							</g>
						</g>
					</g>
				</g>
				<g>
					<circle style="fill:#0B2E3F;" cx="241.141" cy="42.502" r="2.714"/>
				</g>
				<g>
					<path style="fill:#0B2E3F;" d="M209.116,42.502c0,0.899-0.729,1.628-1.628,1.628h-39.353c-0.899,0-1.628-0.729-1.628-1.628l0,0
						c0-0.899,0.729-1.628,1.628-1.628h39.353C208.387,40.874,209.116,41.603,209.116,42.502L209.116,42.502z"/>
				</g>
				<g>
					<path style="fill:#0B2E3F;" d="M266.11,362.483c0,1.049-0.851,1.9-1.9,1.9h-47.766c-1.049,0-1.9-0.85-1.9-1.9l0,0
						c0-1.049,0.85-1.9,1.9-1.9h47.766C265.26,360.584,266.11,361.434,266.11,362.483L266.11,362.483z"/>
				</g>
			</g>
		</g>
		<g>
			<g>
				<ellipse style="fill:#DCC2AB;" cx="163.553" cy="447.08" rx="56.173" ry="25.502"/>
			</g>
			<g>
				<g>
					<g>
						<rect x="229.61" y="194.931" style="fill:#64BCD1;" width="51.889" height="74.055"/>
					</g>
					<g>
						<polygon style="fill:#014273;" points="277.765,192.463 233.974,192.463 230.319,195.012 281.42,195.012 						"/>
					</g>
					<g>
						<path style="fill:#014273;" d="M237.774,196.488c1.174,0.08,2.348,0.161,3.522,0.241c0.431-10.922,1.438-21.822,3.016-32.638
							c1.164-0.151,1.934,1.144,2.367,2.235c3.8,9.578,7.008,19.391,9.598,29.364c2.255,0.155,4.511,0.311,6.766,0.466
							c-4.424-11.493-10.475-22.277-16.503-33.015c-0.275-0.49-0.586-1.013-1.105-1.23c-0.707-0.295-1.55,0.122-1.988,0.751
							c-0.438,0.629-0.569,1.415-0.688,2.172C241.098,175.386,239.436,185.937,237.774,196.488z"/>
					</g>
				</g>
				<g>
					<g>
						<path style="fill:#46A3B2;" d="M229.61,194.931v74.055h51.889v-6.475c-10.035-22.228-19.487-44.642-27.474-67.58H229.61z"/>
					</g>
					<g>
						<path style="fill:#64BCD1;" d="M254.025,194.931c7.987,22.938,17.439,45.352,27.474,67.58v-67.58H254.025z"/>
					</g>
					<g>
						<path style="fill:#64BCD1;" d="M242.828,195.584c-0.854-10.849-1.168-21.74-0.938-32.62c0.017-0.797,0.042-1.619,0.369-2.345
							c0.327-0.727,1.037-1.342,1.834-1.306c0.871,0.039,1.518,0.79,2.05,1.482c8.947,11.621,17.453,23.581,25.495,35.846
							c-1.686,0.235-3.371,0.469-5.057,0.704c-5.527-13.005-13.031-25.167-22.174-35.94c-0.916,2.977-0.58,6.177-0.235,9.273
							c1.017,9.132,2.035,18.265,3.052,27.397c-1.426-0.178-2.895,0.003-4.237,0.519L242.828,195.584z"/>
					</g>
				</g>
				<g>
					<g>
						<path style="fill:#64BCD1;" d="M257.377,280.579l-51.658-4.887c4.271-25.657,6.846-50.371,6.975-73.726l51.658,4.887
							C259.477,228.867,257.496,253.787,257.377,280.579z"/>
					</g>
					<g>
						<polygon style="fill:#014273;" points="260.867,204.045 217.271,199.92 213.393,202.113 264.266,206.926 						"/>
					</g>
					<g>
						<path style="fill:#014273;" d="M243.134,162.892c-1.197,0.277-2.117,1.282-2.631,2.398c-0.514,1.116-0.692,2.352-0.911,3.562
							c-2.112,11.662-8.429,22.066-14.626,32.168c1.587,0.339,3.174,0.678,4.762,1.017c4.733-11.728,9.467-23.456,14.2-35.184
							c0.3-0.743,0.76-1.606,1.559-1.645c0.591-0.029,1.109,0.454,1.317,1.008c0.208,0.554,0.175,1.165,0.139,1.755
							c-0.764,12.488-1.528,24.977-2.292,37.465c1.736,0.014,3.473,0.028,5.209,0.042c-0.771-2.681-0.845-5.506-0.913-8.294
							c-0.219-8.914-0.439-17.827-0.658-26.741c-0.043-1.757-0.103-3.58-0.895-5.149
							C246.599,163.726,244.845,162.495,243.134,162.892z"/>
					</g>
					<g>
						<path style="fill:#64BCD1;" d="M226.733,204.312c1.981,0.39,3.962,0.781,5.943,1.171c2.906-13.969,7.052-27.681,12.373-40.92
							c0.964,0.944,1.085,2.429,1.144,3.777c0.576,13.313,0.721,26.645,0.435,39.967c1.26,0.18,2.519,0.36,3.779,0.54
							c-1.043-13.125-2.086-26.25-3.129-39.375c-0.188-2.372-0.493-4.989-2.266-6.576
							C238.919,176.702,232.826,190.507,226.733,204.312z"/>
					</g>
				</g>
			</g>
			<g>
				<g>
					<g>
						<g>
							<path style="fill:#EF6F6F;" d="M132.599,117.54c-0.304-3.189-0.357-6.398-0.084-9.59c0.115-1.345,0.372-2.748,1.323-3.686
								c1.126-1.111,2.868-1.229,4.449-1.281c5.476-0.181,10.952-0.362,16.427-0.543l2.079,7.569
								c-0.329,2.649-1.55,4.073-0.45,5.885c0.593,0.978,0.911,2.094,0.797,3.232c-0.38,3.776-0.108,7.617,0.799,11.302
								c0.305,1.238-0.483,2.482-1.736,2.718c-3.024,0.571-6.075,1.012-9.137,0.824c-3.866-0.238-7.816-1.602-10.399-4.488
								C133.81,126.291,132.998,121.728,132.599,117.54z"/>
						</g>
						<g>
							<path style="fill:#D65050;" d="M136.666,129.483c2.583,2.886,6.533,4.25,10.399,4.488c2.723,0.168,5.436-0.172,8.13-0.648
								c-6.681-0.449-13.256-1.829-19.184-4.683C136.222,128.926,136.427,129.216,136.666,129.483z"/>
						</g>
						<g>
							<path style="fill:#014273;" d="M148.82,119.375c0.456-0.099,0.916-0.186,1.375-0.273c-0.095-2.816,0.159-5.643,0.83-8.379
								l-0.761-0.379c-1.642,0.639-3.376,1.043-5.131,1.197c1.307,1.132,2.194,2.686,2.779,4.313
								C148.323,116.996,148.591,118.181,148.82,119.375z"/>
						</g>
						<g>
							<path style="fill:#EF6F6F;" d="M152.484,150.871c-4.499-12.49-7.017-25.743-7.422-39.069
								c-5.032,1.238-10.197,1.895-15.369,1.954c-0.36,11.862-1.983,23.682-4.83,35.177
								C134.091,148.039,143.457,148.696,152.484,150.871z"/>
						</g>
						<g>
							<path style="fill:#D65050;" d="M128.626,123.286c0.319,1.682,0.749,3.342,1.284,4.968c0.159,0.482,0.37,1.01,0.833,1.218
								c0.486,0.218,1.047-0.006,1.526-0.241c3.171-1.552,6.117-3.665,8.277-6.458c2.16-2.792,3.488-6.304,3.299-9.829
								c-4.43,2.181-9.649,2.711-14.427,1.465c-0.679,1.45-1.082,3.029-1.18,4.627L128.626,123.286z"/>
						</g>
						<g>
							<path style="fill:#014273;" d="M153.186,105.667c-4.547,0.874-6.655,8.339-9.17,12.227
								c-2.515,3.888-10.408,5.934-15.018,6.366c-1.206-3.444-2.207-6.959-2.997-10.522c-0.431-1.943-0.799-3.963-0.391-5.911
								c0.549-2.62,2.464-4.791,4.714-6.241c2.25-1.45,4.835-2.279,7.385-3.091L153.186,105.667z"/>
						</g>
						<g>
							<path style="fill:#EF6F6F;" d="M147.825,113.654c-0.68-0.666-2.273-2.086-3.223-2.024c-0.95,0.062-1.865,0.544-2.453,1.293
								c-0.769,0.979-0.744,2.406-0.299,3.518c0.456,1.14,1.803,1.78,2.039,3.002c0.166,0.862,0.19,1.276,0.481,2.105
								c0.291,0.829,0.804,1.622,1.584,2.027c0.779,0.405,1.85,0.317,2.409-0.36L147.825,113.654z"/>
						</g>
					</g>
					<g>
						<g>
							<path style="fill:#014273;" d="M151.151,110.017c-7.48,3.316-16.832,1.528-23.548,6.201l-1.352-12.497
								c-0.539-4.978,3.2-9.427,8.2-9.675c4.355-0.216,8.715-0.341,13.075-0.375c9.155-0.072,12.136,12.451,3.812,16.262
								C151.276,109.961,151.214,109.989,151.151,110.017z"/>
						</g>
						<g>
							<path style="fill:#64BCD1;" d="M160.527,100.673c-4.954,0.558-9.73,2.129-14.465,3.691c2.19,1.744,4.011,3.949,5.31,6.429
								c5.911-2.195,11.9-4.181,17.952-5.952c-0.255-1.784-1.758-3.201-3.452-3.815
								C164.179,100.411,162.318,100.471,160.527,100.673z"/>
						</g>
						<g>
							<path style="fill:#64BCD1;" d="M140.078,91.76c-4.152,0.065-8.717,0.283-11.75,3.013c-2.977,2.68-3.549,6.951-3.942,10.856
								c-0.26,2.582-0.422,5.483,1.334,7.451c1.514,1.697,5.185,1.243,7.501,1.415c9.104,0.675,17.26-0.916,24.668-6.054
								c-0.264-5.019,0.237-10.782-3.761-14.013C150.651,91.618,144.617,91.69,140.078,91.76z"/>
						</g>
						<g>
							<path style="fill:#014273;" d="M155.314,108.038c-0.187,0-0.348-0.139-0.372-0.328c-0.369-2.936-0.75-5.972-1.902-8.732
								c-1.259-3.016-3.386-5.28-5.837-6.211c-0.193-0.074-0.291-0.29-0.217-0.484c0.074-0.193,0.291-0.29,0.484-0.217
								c2.642,1.004,4.924,3.418,6.263,6.623c1.192,2.854,1.579,5.942,1.954,8.928c0.026,0.206-0.12,0.393-0.325,0.419
								C155.346,108.037,155.33,108.038,155.314,108.038z"/>
						</g>
						<g>
							<path style="fill:#014273;" d="M133.848,113.599c-0.202,0-0.368-0.16-0.375-0.362c-0.171-5.102,0.36-10.203,1.579-15.161
								c0.443-1.801,1.188-3.983,3.037-4.872c0.187-0.091,0.412-0.011,0.501,0.175c0.09,0.187,0.011,0.411-0.175,0.5
								c-1.557,0.749-2.205,2.632-2.633,4.375c-1.203,4.892-1.727,9.924-1.557,14.957c0.007,0.207-0.155,0.38-0.362,0.388
								C133.856,113.599,133.852,113.599,133.848,113.599z"/>
						</g>
						<g>
							<path style="fill:#014273;" d="M127.764,110.225c0.306,0.052,0.638,0.076,0.91-0.072c0.599-0.326,0.531-1.198,0.354-1.857
								c-0.187-0.698-0.41-1.406-0.851-1.98c-0.44-0.573-1.143-0.994-1.862-0.917c-0.809,0.087-1.465,0.82-1.58,1.626
								c-0.115,0.805,0.252,1.634,0.843,2.192C126.171,109.776,126.962,110.088,127.764,110.225z"/>
						</g>
					</g>
					<g>
						<g>
							<path style="fill:#64BCD1;" d="M157.747,116.756c-0.374-0.374-0.924-0.679-1.415-0.485c-0.192,0.076-0.348,0.218-0.5,0.358
								c-0.993,0.914-1.985,1.828-2.978,2.741c0.465,2.74,0.763,5.509,0.891,8.285c0.048,1.051,0.083,2.147,0.579,3.076
								c0.496,0.929,2.914,1.553,3.905,1.197c0.136-4.071,0.284-6.148,0.699-9.324C159.194,120.559,159.205,118.216,157.747,116.756
								z"/>
						</g>
						<g>
							<path style="fill:#FFFFFF;" d="M153.84,120.226c-0.078,0-0.156-0.024-0.223-0.074c-3.129-2.319-3.517-2.872-4.961-4.93
								c-0.354-0.505-0.773-1.103-1.316-1.844c-0.122-0.168-0.086-0.402,0.081-0.524c0.168-0.123,0.402-0.086,0.524,0.081
								c0.546,0.746,0.968,1.348,1.325,1.856c1.423,2.029,1.762,2.511,4.793,4.758c0.167,0.124,0.202,0.358,0.078,0.524
								C154.068,120.174,153.955,120.226,153.84,120.226z"/>
						</g>
						<g>
							<path style="fill:#FFFFFF;" d="M154.291,129.999c-0.073,0-0.146-0.021-0.211-0.065c-4.297-2.935-8.74-5.971-11.078-11.335
								c-0.083-0.19,0.004-0.411,0.194-0.494c0.189-0.082,0.411,0.004,0.494,0.194c2.251,5.166,6.604,8.14,10.813,11.015
								c0.171,0.117,0.215,0.35,0.098,0.521C154.529,129.941,154.411,129.999,154.291,129.999z"/>
						</g>
					</g>
				</g>
				<g>
					<g>
						<g>
							<path style="fill:#0B2E3F;" d="M159.166,440.269c0.336-1.343,0.2-2.22-0.252-3.275c-0.483-1.127-1.195-1.967-2.287-2.523
								c-1.616-0.823-4.296-1.944-6.109-1.927c-2.914,0.027-5.078,0.548-7.398-1.216c-3.871-0.47-7.792-0.527-11.676-0.17
								c-1.139,0.105-2.291,0.249-3.349,0.682c-1.058,0.433-3.06,0.833-3.522,1.879c-0.554,1.255-0.312,2.704-0.516,4.06
								c-0.257,1.706-0.296,3.681-0.408,5.344c3.064,2.108,6.786,2.968,10.834,3.026c2.324,0.033,3.788-1.757,6.295-1.85
								C149.846,443.963,153.477,442.193,159.166,440.269z"/>
						</g>
						<g>
							<g>
								<g>
									<g>
										<path style="fill:#014273;" d="M121.35,240.25l-0.051,10.852c-8.577,32.181,3.707,42.893,5.38,62.679
											c3.028,35.804,4.192,74.221,0.539,108.73c-0.288,2.717-0.378,6.045-1.008,9.572c3.703,2.334,8.729,2.054,12.405,1.771
											c3.568-0.275,7.206-1.158,10.081-3.063c5.593-65.607,21.649-125.445,15.516-190.541H121.35z"/>
									</g>
									<g>
										<path style="fill:#0B2E3F;" d="M137.977,240.25c-2.24,12.736-2.077,26.181,0.954,39.063
											c11.813,53.551,5.77,104.024-7.053,154.306c2.417,0.364,4.847,0.38,6.738,0.235c3.568-0.275,7.206-1.158,10.081-3.063
											c5.593-65.607,21.649-125.445,15.516-190.541H137.977z"/>
									</g>
								</g>
								<g>
									<path style="fill:#64BCD1;" d="M146.564,434.522c1.005-0.214,2.073-0.473,2.776-1.223c0.878-0.938,0.08-1.662-0.082-2.937
										c-0.161-1.275,1.847-3.694-0.084-5.038c-3.478,2.186-6.845,3.858-10.953,3.829c-4.108-0.029-7.711-1.47-11.159-3.705
										c-2.714,0.633-0.814,4.885-2.102,7.784c3.191,1.86,6.937,2.613,10.631,2.654
										C139.285,435.928,142.952,435.289,146.564,434.522z"/>
								</g>
							</g>
							<g>
								<path style="fill:#0B2E3F;" d="M122.223,288.782c-0.182,0-0.342-0.133-0.37-0.319c-0.031-0.204,0.11-0.395,0.315-0.427
									c3.101-0.469,8.365-3.901,8.983-6.364c0.634-2.522-0.019-5.191-0.742-7.708l-0.156-0.538
									c-0.672-2.321-1.365-4.717-1.188-7.141c-4.057-0.722-7.201-1.589-9.602-2.648c-0.189-0.083-0.275-0.305-0.192-0.494
									c0.084-0.191,0.305-0.277,0.495-0.191c2.412,1.063,5.607,1.933,9.768,2.655c0.195,0.033,0.33,0.213,0.309,0.41
									c-0.261,2.396,0.446,4.838,1.13,7.2l0.156,0.54c0.752,2.615,1.428,5.395,0.749,8.099c-0.69,2.745-6.224,6.412-9.599,6.923
									C122.26,288.781,122.241,288.782,122.223,288.782z"/>
							</g>
						</g>
					</g>
					<g>
						<g>
							<g>
								<path style="fill:#014273;" d="M133.781,240.25c-4.436,36.478,0.108,44.436,5.818,55c1.584,2.931,3.58,3.894,5.232,8.625
									c16.606,47.572,21.538,95.576,23.443,141.599c1.713,4.872,13.889,6.885,23.762-1.343
									c-1.241-67.2-0.409-137.043-14.126-203.881H133.781z"/>
							</g>
							<g>
								<path style="fill:#46A3B2;" d="M186.189,445.195c-0.003,0-0.007,0-0.01,0c-0.206-0.006-0.369-0.179-0.364-0.386
									c1.737-63.265-1.206-127.199-8.745-190.029c-0.025-0.206,0.121-0.393,0.326-0.417c0.204-0.024,0.391,0.121,0.416,0.327
									c7.544,62.866,10.488,126.839,8.751,190.141C186.557,445.034,186.391,445.195,186.189,445.195z"/>
							</g>
							<g>
								<path style="fill:#0B2E3F;" d="M161.994,294.861c-1.179,0-2.315-0.357-3.572-0.79c-4.155-1.429-8.398-3.127-10.63-6.744
									c-1.164-1.887-1.641-4.095-2.066-6.382c-0.896-4.823-1.623-9.744-2.163-14.627c-0.014-0.121,0.033-0.242,0.124-0.323
									c0.092-0.08,0.215-0.11,0.336-0.082c8.125,1.997,16.673,2.581,24.992,1.706c0.197-0.016,0.38,0.12,0.409,0.32
									c0.271,1.921,0.81,3.833,1.331,5.682c0.367,1.303,0.747,2.649,1.034,3.999c0.866,4.067,0.597,7.437-0.8,10.014
									c-0.955,1.764-2.405,3.135-3.808,4.461c-1.1,1.04-2.468,2.334-4.208,2.675C162.662,294.831,162.332,294.861,161.994,294.861
									z M144.365,266.768c0.531,4.689,1.236,9.41,2.096,14.041c0.411,2.213,0.871,4.348,1.967,6.124
									c2.102,3.406,6.21,5.044,10.237,6.43c1.192,0.41,2.266,0.749,3.33,0.749c0.29,0,0.572-0.026,0.837-0.078
									c1.527-0.299,2.808-1.511,3.838-2.484c1.361-1.285,2.767-2.615,3.664-4.272c1.309-2.417,1.553-5.612,0.726-9.5
									c-0.282-1.326-0.658-2.66-1.022-3.95c-0.496-1.761-1.009-3.576-1.299-5.425C160.615,269.214,152.3,268.655,144.365,266.768z
									"/>
							</g>
							<g>
								<path style="fill:#0B2E3F;" d="M144.222,302.494c-0.107,0-0.215-0.047-0.288-0.137
									c-10.103-12.337-13.566-30.156-8.824-45.398c0.061-0.199,0.272-0.306,0.468-0.247c0.197,0.063,0.307,0.272,0.245,0.47
									c-4.669,15.008-1.259,32.553,8.687,44.699c0.131,0.16,0.108,0.396-0.051,0.528
									C144.39,302.466,144.306,302.494,144.222,302.494z"/>
							</g>
						</g>
						<g>
							<g>
								<path style="fill:#0B2E3F;" d="M203.498,456.444c0.345-1.384,0.205-2.287-0.259-3.374c-0.496-1.161-1.227-2.027-2.348-2.6
									c-1.66-0.848-4.41-2.003-6.272-1.985c-2.992,0.028-5.214,0.564-7.595-1.253c-3.975-0.484-8-0.543-11.987-0.175
									c-1.169,0.108-2.352,0.256-3.439,0.703s-3.142,0.858-3.616,1.936c-0.568,1.293-0.32,2.786-0.53,4.183
									c-0.264,1.758-0.304,3.792-0.418,5.505c3.146,2.172,6.967,3.058,11.123,3.117c2.385,0.034,3.889-1.81,6.463-1.906
									C193.93,460.25,197.658,458.426,203.498,456.444z"/>
							</g>
							<g>
								<path style="fill:#64BCD1;" d="M170.711,450.496c-1.401-0.833-2.668-1.872-3.929-2.907
									c-0.161-0.132-0.328-0.272-0.413-0.463c-0.313-0.7,0.62-1.319,0.794-2.066c0.162-0.694-0.353-1.338-0.75-1.928
									c-0.397-0.591-0.675-2.635,1.09-3.101c3.113,2.537,5.875,5.034,9.879,5.267c4.004,0.233,8.024-0.598,11.765-2.048
									c1.784-0.691,2.337-1.439,3.248-3.126c1.951,1.118,1.598,2.795,0.648,3.887c0.632-0.038,1.183,0.5,1.379,1.104
									c0.196,0.604,0.121,1.259,0.043,1.889c-0.078,0.637-0.166,1.298-0.514,1.836c-0.413,0.637-1.126,1.001-1.815,1.317
									c-3.379,1.549-7.007,2.63-10.717,2.811C177.707,453.149,173.906,452.396,170.711,450.496z"/>
							</g>
						</g>
					</g>
				</g>
				<g>
					<g>
						<path style="fill:#DCC2AB;" d="M122.759,243.608l-0.258,5.428c0,0,27.139,12.234,54.665,2.025l-0.172-6.72L122.759,243.608z"
							/>
					</g>
					<g>
						<rect x="129.263" y="242.789" style="fill:#014273;" width="2.068" height="12.234"/>
					</g>
					<g>
						<rect x="140.98" y="244.34" style="fill:#014273;" width="2.068" height="12.234"/>
					</g>
				</g>
				<g>
					<g>
						<path style="fill:#014273;" d="M150.745,137.393c0.004,1.586,0.008,3.172,0.013,4.758c-8.424,1.098-16.849,2.195-25.273,3.293
							c-0.121-2.242-0.242-4.484-0.363-6.726C133.531,136.993,142.202,136.544,150.745,137.393z"/>
					</g>
					<g>
						<path style="fill:#64BCD1;" d="M157.096,139.913c-11.952-0.198-23.927,1.01-35.594,3.607
							c-6.142,7.853-8.529,18.105-8.665,28.074c-0.136,9.969,1.752,19.84,3.463,29.661c3.013,17.286,1.147,33.269,0.212,40.023
							c17.862,9.676,43.733,9.253,64.063,4.114c-2.48-25.325-2.097-47.34-4.274-77.063
							C173.02,161.778,161.762,145.695,157.096,139.913z"/>
					</g>
					<g>
						<path style="fill:#014273;" d="M150.28,169.084c2.973,13.028,12.082,24.517,24.089,30.383c0.6-8.174,0.207-16.42-1.167-24.499
							c-9.679-3.616-17.75-11.331-21.797-20.838C148.931,158.605,149.143,164.099,150.28,169.084z"/>
					</g>
					<g>
						<path style="fill:#014273;" d="M175.615,246.18c-0.045,0-0.092-0.008-0.136-0.026c-0.193-0.075-0.289-0.292-0.213-0.485
							c2.433-6.233,2.679-11.208,0.823-16.635c-3.389-9.912-3.186-20.123-2.99-29.998c0.061-3.042,0.123-6.188,0.079-9.275
							c-0.003-0.207,0.163-0.377,0.37-0.38c0.229-0.012,0.377,0.163,0.38,0.37c0.044,3.099-0.018,6.252-0.079,9.3
							c-0.195,9.81-0.397,19.954,2.95,29.741c1.918,5.609,1.669,10.738-0.835,17.15C175.906,246.089,175.765,246.18,175.615,246.18z
							"/>
					</g>
				</g>
				<g>
					<g>
						<g>
							<path style="fill:#64BCD1;" d="M176.164,154.821c-7.018-6.606-10.849-11.172-20.487-11.148l1.133,0.594
								c-2.01-0.187-4.116,0.263-5.81,1.365c-3.526,2.295-5.284,6.706-5.19,10.912c0.093,4.206,1.802,8.226,3.983,11.823
								c5.529,9.117,15.99,14.145,25.346,19.261c0.955,0.522,1.871,1.04,2.768,1.555c5.472-5.476,9.557-12.096,11.398-19.804
								C184.994,164.648,181.347,159.699,176.164,154.821z"/>
						</g>
						<g>
							<path style="fill:#014273;" d="M173.73,188.038c-0.057,0-0.114-0.013-0.167-0.039c-0.145-0.072-0.228-0.229-0.205-0.39
								l0.104-0.709c0.03-0.205,0.223-0.345,0.425-0.317c0.094,0.014,0.175,0.062,0.232,0.129c5-5.354,9.392-12.863,12.125-20.766
								c0.068-0.195,0.283-0.3,0.477-0.232c0.196,0.068,0.299,0.281,0.232,0.477c-2.887,8.349-7.609,16.271-12.956,21.734
								C173.926,187.999,173.829,188.038,173.73,188.038z"/>
						</g>
						<g>
							<path style="fill:#014273;" d="M150.593,165.756c-0.161,0-0.31-0.104-0.359-0.266c-2.289-7.5,0.09-16.063,5.919-21.308
								c0.154-0.139,0.39-0.127,0.53,0.028c0.139,0.154,0.126,0.391-0.028,0.53c-5.529,4.975-7.874,13.418-5.704,20.532
								c0.06,0.198-0.051,0.408-0.25,0.468C150.666,165.751,150.629,165.756,150.593,165.756z"/>
						</g>
					</g>
					<g>
						<g>
							<g>
								<path style="fill:#EF6F6F;" d="M233.065,157.897c-7.018,9.299-23.142,15.126-33.32,20.761
									c-4.259-2.929-7.502-6.054-10.439-9.278c-1.841,7.708-5.926,14.328-11.398,19.804c7.897,4.532,13.87,8.743,22.943,11.804
									c2.142,0.723,4.436,1.452,6.622,0.874c2.077-0.55,3.664-2.18,5.139-3.741c9.681-10.25,18.75-20.204,28.4-30.484
									C238.28,162.353,238.142,161.165,233.065,157.897z"/>
							</g>
							<g>
								<path style="fill:#D65050;" d="M205.588,197.2c-7.325,3.256-15.871-4.473-24.723-11.29
									c-0.938,1.128-1.913,2.228-2.958,3.274c7.897,4.532,13.87,8.743,22.943,11.804c2.142,0.723,4.436,1.452,6.622,0.874
									c2.077-0.55,3.664-2.18,5.139-3.741c9.681-10.25,18.75-20.204,28.4-30.484c-0.5-0.967-0.912-1.795-1.284-2.526
									C229.47,177.533,220.28,191.15,205.588,197.2z"/>
							</g>
						</g>
						<g>
							<g>
								<g>
									<path style="fill:#64BCD1;" d="M246.808,164.963c-0.748,1.217-1.519,2.459-2.639,3.346
										c-2.226,1.762-5.449,1.829-7.673,3.594c0.143-3.579-1.473-7.186-4.24-9.461c-0.461-0.379-0.989-0.786-1.071-1.376
										c-0.069-0.494,0.202-0.964,0.447-1.399c1.333-2.365,2.194-4.994,2.519-7.689c0.084-0.697,0.136-1.411,0.411-2.057
										s0.829-1.225,1.526-1.307c0.792-0.094,1.549,0.458,2.344,0.386c1.371-0.124,2.146-1.987,3.523-1.975
										c1.609,0.015,2.149,2.473,3.712,2.856c0.489,0.12,1.041,0.019,1.471,0.281c0.512,0.313,0.629,1.006,0.591,1.604
										s-0.176,1.219,0.023,1.784c0.619-0.197,1.259,0.389,1.388,1.026c0.129,0.637-0.089,1.285-0.268,1.909
										c-0.179,0.624-0.315,1.317-0.037,1.904c0.227,0.48,0.71,0.839,0.798,1.362c0.077,0.461-0.177,0.906-0.422,1.304
										C248.409,162.359,247.608,163.661,246.808,164.963z"/>
								</g>
								<g>
									<path style="fill:#64BCD1;" d="M228.564,160.644c3.043,2.961,5.318,6.703,6.546,10.767c0.215,0.712,0.4,1.443,0.405,2.187
										c0.002,0.333-0.008,0.722,0.253,0.928c0.349,0.277,0.853-0.007,1.191-0.297c1.297-1.108,2.448-2.389,3.411-3.797
										c0.423-0.619,0.823-1.299,0.853-2.049c0.026-0.649-0.229-1.272-0.478-1.871c-0.828-1.987-1.667-3.992-2.913-5.748
										c-1.246-1.755-2.953-3.264-5.018-3.872C231.397,158.143,229.981,159.393,228.564,160.644z"/>
								</g>
							</g>
							<g>
								<path style="fill:#014273;" d="M240.092,170.064c-0.182,0-0.342-0.133-0.37-0.318c-0.554-3.605-2.478-7.01-5.279-9.345
									c-0.159-0.133-0.181-0.369-0.048-0.528c0.133-0.159,0.369-0.181,0.528-0.048c2.939,2.45,4.958,6.024,5.54,9.807
									c0.031,0.205-0.109,0.396-0.313,0.428C240.13,170.062,240.111,170.064,240.092,170.064z"/>
							</g>
						</g>
					</g>
				</g>
			</g>
		</g>
		<g>
			<g>
				<ellipse style="fill:#DCC2AB;" cx="320.882" cy="403.862" rx="55.132" ry="25.029"/>
			</g>
			<g>
				<g>
					<g>
						<g>
							<g>
								<path style="fill:#EF6F6F;" d="M319.456,320.896h-23.09l4.064,58.362c-0.74,5.146-2.031,10.178-5.099,14.215
									c-2.061,2.711-4.754,5.058-6.17,8.107c-1.416,3.049-3.184,7.013-0.087,8.66c3.415,1.816,9.943-0.327,12.157-3.355
									c2.214-3.027,3.306-6.735,5.912-9.478c1.347-1.417,4.865-3.463,5.895-5.095c1.983-3.142-0.733-6.635-1.28-10.244
									c-0.124-0.818-0.264-1.639-0.408-2.46c0.558-9.262,3.621-18.429,5.591-27.62
									C319.138,341.74,319.972,331.295,319.456,320.896z"/>
							</g>
							<g>
								<path style="fill:#D65050;" d="M319.456,320.896h-6.19c-0.013,16.724-0.261,32.658-4.933,49.476
									c-0.987,4.934,0,9.868,1.973,13.815c1.821,2.341,2.812,4.75,3.186,7.155c0.986-2.884-1.245-6.032-1.736-9.274
									c-0.124-0.818-0.264-1.639-0.408-2.46c0.558-9.262,3.621-18.429,5.591-27.62
									C319.138,341.739,319.972,331.294,319.456,320.896z"/>
							</g>
						</g>
						<g>
							<g>
								<path style="fill:#014273;" d="M299.324,224.667c-1.964,23.272-5.542,48.238-5.917,72.604
									c-0.216,14.014,0.989,28.835,1.545,41.733c8.406-0.12,14.291,2.878,26.936,0.462c-0.388-9.781-0.776-19.563-1.163-29.344
									c-0.426-10.741,2.672-28.972,5.126-39.474c2.499-10.691,4.359-13.22,8.46-23.473c2.883-7.208,5.132-14.889,5.251-22.509
									H299.324z"/>
							</g>
							<g>
								<path style="fill:#0B2E3F;" d="M314.233,340.365c2.28-0.091,4.787-0.35,7.654-0.898c-0.388-9.781-0.776-19.563-1.163-29.344
									c-0.426-10.741,2.672-28.972,5.126-39.474c2.499-10.691,4.359-13.22,8.46-23.473c0.949-2.373,1.827-4.799,2.587-7.255
									C315.922,269.263,313.168,304.833,314.233,340.365z"/>
							</g>
							<g>
								<path style="fill:#0B2E3F;" d="M299.319,224.667c-0.432,5.111-0.934,10.296-1.47,15.544
									c12.435,3.841,25.318,4.339,38.085,2.628c2.066-5.913,3.535-12.062,3.633-18.172H299.319z"/>
							</g>
						</g>
						<g>
							<g>
								<path style="fill:#481B26;" d="M297.65,410.581c2.312-0.847,3.985-2.869,5.296-4.954c1.311-2.084,2.4-4.344,4.093-6.131
									c1.1-1.162,2.422-2.086,3.651-3.111c1.229-1.025,2.397-2.193,3.044-3.656c0.647-1.463,0.689-3.278-0.24-4.582
									c-0.437,2.186-1.867,4.046-3.466,5.6c-1.599,1.554-3.407,2.892-4.906,4.542c-1.776,1.956-3.068,4.297-4.685,6.386
									c-1.617,2.089-3.7,4.001-6.283,4.556c-2.397,0.515-5.035-0.284-6.744-2.043c-0.469,1.02,0.158,2.274,1.1,2.885
									c0.942,0.61,1.824,1.139,2.941,1.245C293.435,411.505,295.78,411.267,297.65,410.581z"/>
							</g>
							<g>
								<path style="fill:#481B26;" d="M287.271,404.394c-0.225,0.813-0.394,1.685-0.149,2.492c0.281,0.924,1.069,1.615,1.926,2.059
									c2.442,1.264,5.518,0.796,7.866-0.636c2.348-1.432,4.07-3.695,5.478-6.058c-1.816-2.241-4.3-3.933-7.05-4.803
									c-1.131-0.358-2.375-0.575-3.49-0.17c-1.247,0.453-2.104,1.596-2.763,2.749C288.305,401.4,287.693,402.871,287.271,404.394z
									"/>
							</g>
						</g>
					</g>
					<g>
						<g>
							<g>
								<path style="fill:#EF6F6F;" d="M329.766,321.882l1.467,12.053c5.723,16.657,9.153,41.09,6.409,52.066
									c-1.926,7.704-7.565,15.275-7.165,23.324c0.139,2.794,1.444,4.013,4.699,4.756c2.746,0.627,7.239-1.851,9.298-3.476
									c2.476-1.955,5.011-4.966,5.399-7.775c0.492-3.565-0.238-5.152,0.519-8.686c0.633-2.952,2.761-5.713,2.479-8.702
									c-0.188-1.996-1.124-4.595-1.599-6.577c-0.9-3.75-0.412-15.537,1.836-23.683c3.009-10.902,3.255-22.314,0.752-33.301
									H329.766z"/>
							</g>
							<g>
								<path style="fill:#D65050;" d="M353.859,321.882h-5.777c1.017,9.762,2.423,18.849-0.279,28.754
									c-2.96,15.788,4.934,29.603,1.974,45.391c0,3.367-0.479,7.188-1.711,10.847c0.931-1.302,1.62-2.695,1.806-4.043
									c0.492-3.565-0.238-5.152,0.519-8.686c0.633-2.952,2.761-5.713,2.479-8.702c-0.188-1.996-1.124-4.595-1.599-6.577
									c-0.9-3.75-0.412-15.537,1.836-23.683C356.116,344.282,356.362,332.87,353.859,321.882z"/>
							</g>
							<g>
								<path style="fill:#014273;" d="M354.17,294.028c0.283-12.565,3.62-28.162,2.961-40.713
									c-0.517-9.855-1.143-20.442-5.868-28.648h-32.805l1.495,7.978c4.011,38.119,5.778,72.489,9.789,110.608
									c10.162,4.728,22.45,3.448,31.645-2.961C357.501,323.452,353.761,312.167,354.17,294.028z"/>
							</g>
							<g>
								<path style="fill:#0B2E3F;" d="M354.17,294.028c0.283-12.565,3.62-28.162,2.961-40.713
									c-0.517-9.855-1.143-20.442-5.868-28.648h-4.186c1.18,2.782,2.264,5.659,3.145,8.74c6.088,30.441-3.044,58.853,6.088,88.279
									c1.847,6.332,0.383,14.533,1.585,20.865c0.199-0.132,3.297-2.122,3.493-2.258
									C357.501,323.452,353.761,312.167,354.17,294.028z"/>
							</g>
							<g>
								<path style="fill:#0B2E3F;" d="M318.458,224.667l1.495,7.978c0.427,4.062,0.825,8.074,1.207,12.06
									c11.748-0.124,23.781-1.911,34.644-6.177c-0.804-4.962-2.143-9.715-4.527-13.862H318.458z"/>
							</g>
						</g>
						<g>
							<g>
								<path style="fill:#481B26;" d="M337.446,413.543c-2.545,0.248-4.65-1.418-6.843-2.733c0.238,1.139,0.8,2.391,1.82,2.949
									c1.02,0.559,2.198,0.768,3.36,0.826c3.173,0.159,6.391-0.782,8.98-2.624c2.588-1.842,4.531-4.575,5.42-7.626
									c1.078-3.7,0.627-7.707,1.652-11.422c0.38-1.379,0.961-2.702,1.248-4.103c0.288-1.401,0.456-3.184-0.325-4.383
									c0.434,3.572-2.717,6.923-3.204,10.488c-0.282,2.064,0.279,4.173,0.011,6.24c-0.445,3.431-3.046,6.133-5.557,8.512
									C342.127,411.449,340.023,413.292,337.446,413.543z"/>
							</g>
							<g>
								<path style="fill:#481B26;" d="M348.727,405.152c0.189-1.287-0.71-2.49-1.734-3.292c-1.724-1.353-3.898-2.033-6.075-2.287
									c-2.176-0.254-4.378-0.108-6.564,0.038c-0.912,0.061-1.915,0.163-2.546,0.825c-0.442,0.464-0.611,1.118-0.752,1.744
									c-0.342,1.522-0.612,3.061-0.81,4.608c-0.172,1.343-0.279,2.76,0.255,4.005c0.651,1.516,2.191,2.526,3.809,2.848
									c1.618,0.322,3.302,0.035,4.871-0.475c3.427-1.113,6.493-3.309,8.651-6.195C348.24,406.424,348.627,405.828,348.727,405.152
									z"/>
							</g>
						</g>
					</g>
				</g>
				<g>
					<g>
						<path style="fill:#DCC2AB;" d="M288.227,195.807c3.158,1.529,6.808-0.502,9.718-2.462c1.049-0.706,2.129-1.444,2.805-2.513
							c0.86-1.36,0.945-3.05,1.082-4.654c0.855-9.952,4.67-19.376,8.38-28.65c0.802-2.004,1.608-4.04,1.832-6.187
							c0.45-4.319-1.717-8.807-5.379-11.14c-0.739-0.471-1.573-0.868-2.449-0.834c-0.744,0.029-1.443,0.368-2.066,0.777
							c-2.869,1.885-4.426,5.191-5.678,8.387c-1.458,3.723-2.695,7.532-3.702,11.401c-1.141,4.381-2.005,8.891-4.034,12.939
							c-1.277,2.548-2.99,4.859-4.261,7.41c-1.271,2.551-2.091,5.486-1.407,8.253c0.341,1.378,1.037,2.641,1.799,3.838
							C285.741,193.742,286.767,195.1,288.227,195.807z"/>
					</g>
					<g>
						<path style="fill:#481B26;" d="M294.466,164.892c0.12,4.451,1.958,8.645,3.364,12.87c1.407,4.225,2.387,8.902,0.814,13.068
							c1.648-0.539,2.979-1.827,3.839-3.332c0.86-1.505,1.288-3.22,1.545-4.934c1.702-11.319-3.619-22.502-4.086-33.938
							C297.074,153.662,294.31,159.098,294.466,164.892z"/>
					</g>
				</g>
				<g>
					<path style="fill:#481B26;" d="M326.348,91.555c4.006-0.158,8.503-0.114,11.359,2.7c1.934,1.906,2.667,4.685,3.301,7.326
						c4.574,19.049,8.125,38.344,10.633,57.774c-13.908-1.538-27.98-1.583-41.897-0.132c4.657-16.064,1.617-33.2,1.622-49.926
						c0.001-2.948,0.104-5.936,0.942-8.763c0.838-2.827,2.492-5.511,5.007-7.05C319.972,91.859,323.236,91.678,326.348,91.555z"/>
				</g>
				<g>
					<path style="fill:#EF6F6F;" d="M299.047,184.28c-0.323-3.273-1.749-6.32-3.147-9.296c-3.901-8.307-10.258-16.874-12.316-26.89
						c-0.147-0.001-0.295,0.012-0.442,0.016c-0.373-2.335-0.11-4.872-1.405-6.831c-0.622-0.941-1.543-1.636-2.366-2.408
						c-0.971-0.912-1.822-1.952-2.523-3.085c-0.396-0.639-0.78-1.344-1.445-1.695c-0.665-0.351-1.698-0.099-1.823,0.642
						c-1.041-0.704-2.712,0.053-2.87,1.299c-0.061,0.477,0.051,1.019-0.246,1.398c-0.17,0.217-0.439,0.328-0.652,0.503
						c-0.689,0.567-0.637,1.625-1.017,2.432c-0.513,1.092-1.853,1.796-1.913,3c-0.057,1.136,1.051,1.929,1.714,2.853
						c0.775,1.079,0.978,2.47,1.65,3.615c0.98,1.671,2.855,2.586,4.808,2.814c2.177,8.249,3.481,15.041,3.913,22.9
						c0.182,3.326,0.438,6.689,1.487,9.85s2.979,6.145,5.848,7.837c2.869,1.692,6.753,1.854,9.431-0.127
						C298.377,191.152,299.37,187.552,299.047,184.28z"/>
					<g>
						<path style="fill:#D65050;" d="M299.047,184.28c-0.323-3.273-1.749-6.32-3.147-9.296c-2.047-4.358-4.766-8.79-7.189-13.463
							c3.221,7.648,6.812,14.972,6.812,23.014c0,3.196-3.197,6.393-6.393,7.458c-1.419,0.355-2.741,0.489-3.975,0.451
							c0.366,0.285,0.745,0.553,1.147,0.791c2.869,1.692,6.753,1.854,9.431-0.127C298.377,191.152,299.37,187.552,299.047,184.28z"
							/>
					</g>
					<g>
						<path style="fill:#D65050;" d="M270.358,142.257c-0.214,0.808-0.408,1.738,0.071,2.423c0.345,0.493,0.95,0.717,1.506,0.949
							c1.951,0.815,3.721,2.061,5.147,3.622c0.223-1.793,0.78-3.545,1.635-5.137c0.301-0.56,0.643-1.116,0.746-1.743
							c0.137-0.839-0.188-1.711-0.735-2.362c-0.547-0.651-1.297-1.105-2.078-1.441c-1.36-0.586-3.022-0.821-4.262-0.011
							C271.182,139.345,270.726,140.864,270.358,142.257z"/>
					</g>
					<g>
						<g>
							<path style="fill:#64BCD1;" d="M279.465,139.214c-4.328-3.346-6.532-8.681-8.552-13.765
								c-3.551,0.765-7.187,1.131-10.819,1.087c1.213,6.741,5.15,12.951,10.729,16.923c0.227,0.162,0.469,0.325,0.747,0.354
								c0.327,0.035,0.64-0.121,0.935-0.267c2.867-1.414,6.034-2.215,9.228-2.335L279.465,139.214z"/>
						</g>
						<g>
							<path style="fill:#014273;" d="M278.849,138.69c-3.632-4.091-4.808-9.742-5.849-15.113
								c-3.631,0.093-7.272-0.223-10.833-0.939c-0.059,6.849,2.658,13.681,7.402,18.62c0.193,0.201,0.401,0.406,0.668,0.487
								c0.315,0.095,0.651,0,0.968-0.088c3.079-0.857,6.34-1.057,9.501-0.583L278.849,138.69z"/>
						</g>
						<g>
							<path style="fill:#64BCD1;" d="M280.495,138.004c-3.632-4.091-4.807-9.742-5.849-15.113
								c-3.631,0.093-7.272-0.223-10.833-0.939c-0.059,6.849,2.658,13.681,7.402,18.621c0.193,0.201,0.401,0.406,0.668,0.487
								c0.315,0.095,0.651,0,0.968-0.088c3.079-0.857,6.34-1.057,9.501-0.582L280.495,138.004z"/>
						</g>
					</g>
					<g>
						<path style="fill:#EF6F6F;" d="M284.997,150.281c-0.092-1.781-0.184-3.583,0.161-5.332c0.117-0.595,0.285-1.2,0.188-1.799
							c-0.154-0.946-0.919-1.65-1.575-2.349c-1.124-1.199-2.037-2.595-2.684-4.105c-1.837-0.143-3.576-1.227-4.512-2.815
							c-0.203,0.889-0.408,1.794-0.333,2.703c0.075,0.909,0.476,1.837,1.246,2.325c0.385,0.244,0.837,0.366,1.225,0.606
							c0.823,0.511,1.245,1.5,1.337,2.465c0.092,0.965-0.094,1.93-0.226,2.89c-0.145,1.058-0.225,2.124-0.238,3.192
							c-0.018,1.44,0.113,2.965,0.949,4.138c0.836,1.173,2.588,1.794,3.769,0.97L284.997,150.281z"/>
					</g>
				</g>
				<g>
					<g>
						<path style="fill:#DCC2AB;" d="M304.917,137.661c-1.311,0.898-2.583,1.939-3.344,3.334c-0.995,1.825-0.995,4.002-1.355,6.05
							c-0.825,4.698-3.623,8.934-4.043,13.686c-0.482,5.449,2.206,10.602,3.744,15.852c4.268,14.573-1.525,40.288-1.787,55.471
							c14.269,9.879,39.85,4.942,56.98,1.471c-1.09-7.323-6.25-25.686-7.34-33.009c-1.051-7.062-2.101-14.28-0.803-21.301
							c1.275-6.897,4.74-13.182,6.736-19.906c2.132-7.182,2.553-14.866,1.218-22.238c-8.28-2.437-16.662-4.833-25.279-5.332
							C321.027,131.239,312.04,132.785,304.917,137.661z"/>
					</g>
					<g>
						<path style="fill:#481B26;" d="M352.926,232.561c-0.603-9.271-3.701-16.948-6.098-25.925
							c-2.397-8.976-4.141-18.456-2.068-27.513c1.18-5.153,3.549-9.948,5.182-14.975c1.632-5.028,2.499-10.594,0.635-15.54
							c-2.182,8.233-5.867,16.065-10.818,22.995c-1.495,2.092-3.165,4.254-3.398,6.815c-0.305,3.35,1.898,6.328,3.487,9.294
							c1.554,2.9,2.592,6.343,1.567,9.469c-0.53,1.617-1.589,3.085-2.096,4.677c-5.002-1.082-10.249-1.052-15.335-0.33
							c-6.516,0.925-12.826,2.92-19.086,4.952c-1.438,0.467-3.108,1.19-3.369,2.68c-0.199,1.136,0.555,2.223,1.41,2.997
							c3.326,3.008,8.364,3.268,12.734,2.261c4.37-1.006,8.428-3.081,12.764-4.223c4.111-1.083,8.446-1.309,12.647-0.658
							c0.205,0.032,0.414,0.073,0.623,0.115c4.183,7.26,3.689,16.23,3.056,24.604C347.714,234.111,350.677,232.74,352.926,232.561z"
							/>
					</g>
					<g>
						<path style="fill:#481B26;" d="M318.917,153.02c-1.92,0-3.903-0.42-5.681-1.606c-2.2-1.468-3.802-3.98-4.51-7.073
							c-0.64-2.794-0.509-5.682-0.272-8.387c0.019-0.206,0.189-0.354,0.407-0.341c0.206,0.018,0.358,0.2,0.341,0.406
							c-0.232,2.644-0.362,5.462,0.254,8.155c0.665,2.905,2.155,5.254,4.195,6.616c4.485,2.992,10.49,0.713,12.863-0.405
							c6.974-3.282,12.749-9.211,15.846-16.268c0.085-0.191,0.305-0.276,0.494-0.192c0.19,0.083,0.276,0.304,0.193,0.494
							c-3.169,7.22-9.079,13.287-16.213,16.645C325.268,151.803,322.185,153.02,318.917,153.02z"/>
					</g>
					<g>
						<path style="fill:#481B26;" d="M326.163,236.417c-11.882,0-21.766-2.328-27.487-5.844c-0.177-0.108-0.231-0.339-0.123-0.516
							c0.107-0.177,0.338-0.231,0.516-0.123c9.761,5.997,31.881,8.47,55.274,1.59c0.197-0.056,0.406,0.056,0.465,0.254
							c0.059,0.199-0.055,0.407-0.254,0.466C344.591,235.174,334.843,236.417,326.163,236.417z"/>
					</g>
				</g>
				<g>
					<g>
						<path style="fill:#EF6F6F;" d="M334.874,133.294c-1.465-5.753-2.196-11.617-2.169-17.48c-3.031,1.278-6.433,2.029-9.882,2.179
							c-0.935,5.1-1.87,10.199-2.804,15.298c-3.097,0.544-6.134,1.428-9.031,2.652c-1.008,3.018-0.742,6.481,0.897,9.207
							c1.64,2.726,4.68,4.613,7.861,4.668c1.363,0.024,2.713-0.27,4.022-0.652c5.272-1.539,10.099-4.57,13.775-8.651
							c1.487-1.651,2.83-3.57,3.121-5.772C338.771,134.118,336.834,133.639,334.874,133.294z"/>
						<g>
							<path style="fill:#D65050;" d="M331.305,116.328c-2.665,0.951-5.55,1.537-8.482,1.665
								c-0.927,5.057-1.854,10.115-2.781,15.172C327.159,130.106,333.453,125.373,331.305,116.328z"/>
						</g>
					</g>
					<g>
						<g>
							<path style="fill:#EF6F6F;" d="M333.53,108.991c-0.613-3.821-3.142-7.154-6.369-9.07c-3.227-1.916-7.08-2.499-10.773-2.101
								l-6.614,0.743c-1.539,2.038-1.829,4.46-2.378,6.99c-0.201,0.925-0.405,2.377-0.086,3.265
								c0.296,0.824,0.516,1.422,0.821,2.242c0.934,2.504-0.028,2.733-0.155,5.416c-0.073,1.531,0.617,4.721,1.332,6.06
								c1.025,1.919,2.664,3.686,3.862,5.194c1.14,1.434,2.156,2.162,3.959,2.162h0.047c1.199,0,2.371-0.364,3.37-1.043
								c2.697-1.832,5.363-3.704,7.657-6.046C331.739,119.193,334.348,114.082,333.53,108.991z"/>
						</g>
						<g>
							<path style="fill:#481B26;" d="M333.482,93.579c-0.55-2.095-2.641-3.408-4.696-4.093c-4.671-1.556-10.039-0.852-14.152,1.854
								c-4.113,2.706-10.72,10.22-6.991,12.417c1.274,0.028,1.524-1.377,2.558-2.122s1.751-1.904,2.505-0.877
								c1.377,1.878,4.466,2.995,5.218,4.091c2.6,3.79,6.107,5.056,10.693,5.357c-0.404,2.362,0.039,4.861,1.231,6.94
								c0.335,0.584,0.74,1.149,1.307,1.512c0.567,0.362,1.324,0.486,1.918,0.169c0.321-0.171,0.567-0.451,0.803-0.727
								c2.279-2.666,4.34-5.581,5.548-8.873c1.208-3.293,1.506-7.01,0.287-10.299c-1.218-3.289-4.101-6.042-7.564-6.597
								L333.482,93.579z"/>
						</g>
						<g>
							<g>
								<path style="fill:#481B26;" d="M308.51,109.322c-0.022,0-0.044-0.002-0.066-0.006l-1.131-0.202
									c-0.204-0.036-0.34-0.231-0.304-0.435c0.036-0.204,0.233-0.34,0.435-0.303l1.133,0.202c0.203,0.037,0.339,0.231,0.303,0.435
									C308.847,109.195,308.689,109.322,308.51,109.322z"/>
							</g>
							<g>
								<path style="fill:#481B26;" d="M322.094,109.06c-0.057,0-0.113-0.013-0.166-0.039c-0.79-0.391-1.606-0.795-2.462-0.955
									c-0.908-0.17-1.759-0.016-2.338,0.417c-0.165,0.124-0.399,0.09-0.525-0.076c-0.124-0.166-0.09-0.401,0.076-0.525
									c0.749-0.559,1.817-0.76,2.924-0.554c0.958,0.179,1.822,0.606,2.657,1.021c0.185,0.092,0.262,0.317,0.17,0.503
									C322.364,108.983,322.231,109.06,322.094,109.06z"/>
							</g>
							<g>
								<path style="fill:#481B26;" d="M314.105,121.77c-0.016,0-0.032-0.001-0.05-0.003l-3.011-0.399
									c-0.341-0.045-0.853-0.114-1.191-0.494c-0.605-0.682-0.122-1.691,0.061-2.071c0.602-1.259,1.304-2.933,1.389-4.716
									c0.083-1.736-0.495-3.368-1.546-4.365c-0.15-0.143-0.157-0.38-0.015-0.53c0.143-0.15,0.381-0.156,0.53-0.014
									c1.225,1.162,1.874,2.965,1.78,4.945c-0.092,1.918-0.83,3.682-1.463,5.004c-0.307,0.642-0.362,1.039-0.176,1.249
									c0.141,0.158,0.426,0.208,0.729,0.248l3.012,0.399c0.205,0.027,0.35,0.216,0.322,0.421
									C314.452,121.632,314.291,121.77,314.105,121.77z"/>
							</g>
							<g>
								<path style="fill:#481B26;" d="M314.373,124.488c-0.296,0-0.592-0.028-0.883-0.086c-0.203-0.04-0.335-0.238-0.295-0.441
									c0.041-0.202,0.233-0.338,0.441-0.294c1.229,0.245,2.558-0.141,3.466-1.007c0.15-0.143,0.386-0.137,0.53,0.013
									c0.143,0.15,0.137,0.387-0.013,0.53C316.754,124.029,315.565,124.488,314.373,124.488z"/>
							</g>
							<g>
								<path style="fill:#481B26;" d="M318.75,111.394c0.304,0.58,0.487,1.56,0.144,1.871c-0.239,0.217-0.647,0.115-0.861-0.127
									c-0.214-0.242-0.285-0.575-0.348-0.892c-0.061-0.307-0.12-0.635-0.001-0.925c0.119-0.289,0.493-0.494,0.755-0.323
									C318.546,111.069,318.654,111.212,318.75,111.394z"/>
							</g>
							<g>
								<path style="fill:#481B26;" d="M309.579,111.249c0.256,0.523,0.409,1.406,0.121,1.687c-0.201,0.196-0.544,0.104-0.724-0.114
									c-0.18-0.218-0.24-0.518-0.293-0.804c-0.051-0.277-0.101-0.573-0.001-0.834c0.1-0.261,0.415-0.445,0.635-0.291
									C309.408,110.956,309.499,111.085,309.579,111.249z"/>
							</g>
						</g>
					</g>
				</g>
				<g>
					<g>
						<g>
							<path style="fill:#DCC2AB;" d="M353.214,137.216c1.482-0.19,2.652,1.293,3.426,2.671c1.427,2.545,2.551,5.288,3.335,8.141
								c1.155,4.203,2.025,8.562,2.103,12.94c0.444,25.084,8.127,30.206,2.09,41.091c-9.879,5.671-18.591-4.117-16.83-10.336
								c0.274-12.165-1.829-14.289-4.081-24.864c-0.72-3.38-1.444-6.798-1.414-10.266c0.064-7.51,3.946-14.854,9.901-18.729
								C352.201,137.568,352.684,137.284,353.214,137.216z"/>
						</g>
						<g>
							<path style="fill:#481B26;" d="M345.115,176.97c-0.15,0-0.292-0.091-0.35-0.24c-3.326-8.587-3.705-18.175-1.065-26.997
								c0.06-0.198,0.266-0.313,0.467-0.252c0.198,0.06,0.311,0.269,0.252,0.467c-2.592,8.664-2.221,18.079,1.046,26.512
								c0.075,0.193-0.021,0.41-0.214,0.485C345.206,176.962,345.16,176.97,345.115,176.97z"/>
						</g>
						<g>
							<path style="fill:#481B26;" d="M347.013,191.219c-0.074,0-0.149-0.022-0.215-0.067c-0.17-0.118-0.211-0.352-0.093-0.522
								c1.992-2.859,5.246-4.823,8.703-5.254c3.465-0.434,7.096,0.672,9.728,2.954c0.157,0.135,0.174,0.372,0.038,0.529
								c-0.136,0.157-0.372,0.173-0.528,0.038c-2.476-2.143-5.889-3.179-9.144-2.776c-3.25,0.405-6.309,2.251-8.182,4.939
								C347.247,191.163,347.131,191.219,347.013,191.219z"/>
						</g>
					</g>
					<g>
						<g>
							<path style="fill:#EF6F6F;" d="M361.823,188.66c-2.63-1.772-6.151-1.353-9.184-0.428c-4.22,1.287-8.137,3.396-12.234,5.033
								c-6.711,2.682-13.93,4.078-21.157,4.114c-2.203-0.229-4.379-0.705-6.468-1.441c-0.382-0.134-0.777-0.279-1.179-0.24
								c-1.221,0.119-1.622,1.651-2.309,2.667c-0.668,0.988-1.767,1.579-2.823,2.132c-1.652,0.866-3.304,1.732-4.956,2.598
								c-0.601,0.315-1.223,0.648-1.622,1.196c-0.399,0.548-0.5,1.378-0.041,1.876c0.684,0.743,2.212,0.444,2.588,1.381
								c0.125,0.312,0.062,0.666,0.121,0.997c0.126,0.715,0.813,1.221,1.522,1.376c0.709,0.156,1.445,0.035,2.164-0.063
								c0.275-0.037,0.563-0.07,0.824,0.025c0.998,0.367,0.678,2.075,1.572,2.651c0.864,0.557,2.004-0.413,3-0.161
								c0.395,0.1,0.715,0.381,1.072,0.577c1.708,0.939,3.776-0.187,5.39-1.28c1.515-1.027,3.031-2.053,4.546-3.079
								c0.481-0.326,0.971-0.652,1.47-0.966c6.144-1.201,12.4-1.83,18.66-1.859c3.852-0.018,7.748,0.184,11.515-0.619
								c3.767-0.803,7.488-2.784,9.378-6.141S365.018,190.812,361.823,188.66z"/>
						</g>
						<g>
							<path style="fill:#D65050;" d="M312.264,212.673c0.149,0.095,0.295,0.194,0.449,0.278c1.708,0.939,3.776-0.187,5.39-1.28
								c1.515-1.027,3.031-2.053,4.546-3.079c0.481-0.326,0.971-0.652,1.47-0.966c6.144-1.201,12.4-1.83,18.66-1.859
								c3.852-0.018,7.748,0.184,11.515-0.619c3.767-0.803,7.488-2.784,9.378-6.141c0.601-1.068,0.954-2.286,1.055-3.52
								c-11.065,10.082-30.211,3.313-41.594,12.07C319.793,210.063,316.059,211.783,312.264,212.673z"/>
						</g>
					</g>
				</g>
			</g>
		</g>
	</g>
</g>
</svg>
