<?xml version="1.0" encoding="utf-8"?>
<!-- Generator: Adobe Illustrator 27.5.0, SVG Export Plug-In . SVG Version: 6.00 Build 0)  -->
<svg version="1.1" xmlns="http://www.w3.org/2000/svg" xmlns:xlink="http://www.w3.org/1999/xlink" x="0px" y="0px"
	 viewBox="0 300 3710 2910" style="enable-background:new 0 0 3710 3710;" xml:space="preserve">
<g id="Background">
	<g>
		<g>
			<rect style="fill:transparent;" width="3710" height="710"/>
		</g>
	</g>
</g>
<g id="Illustration">
	<g>
		<path style="fill:#F4F7FA;" d="M2913.114,996.37c-41.928-57.524-400.878-533.222-982.717-510.051
			c-29.074,1.158-596.525,31.195-805.825,404.085c-154.826,275.836,9.089,520.573-179.787,708.507
			c-164.574,163.754-366.831,55.365-467.966,187.784c-154.056,201.713,91.281,746.486,468.227,1050.301
			c389.221,313.709,1133.845,543.859,1712.595,125.311C3307.416,2492.396,3300.822,1528.285,2913.114,996.37z"/>
		<g>
			
				<linearGradient id="SVGID_1_" gradientUnits="userSpaceOnUse" x1="3037.3062" y1="939.5304" x2="3661.0112" y2="912.4128" gradientTransform="matrix(-1 0 0 1 6170.7925 0)">
				<stop  offset="0" style="stop-color:#AB316D"/>
				<stop  offset="1" style="stop-color:#792D3D"/>
			</linearGradient>
			<path style="fill:url(#SVGID_1_);" d="M2085.506,1223.699c9.002,0,16.695-6.74,17.566-15.744
				c15.47-159.839,68.395-311.705,149.025-427.631c71.428-102.7,156.464-163.984,227.514-163.984c0.082,0,0.156,0,0.237,0
				c258.786,0.497,312.919,585.541,313.435,591.453c0.837,9.574,9.356,16.663,19.117,15.843c9.72-0.824,16.924-9.251,16.089-18.82
				c-2.217-25.428-57.625-622.709-348.572-623.27c-0.104,0-0.209,0-0.311,0c-83.949,0-177.477,65.264-256.665,179.117
				c-83.953,120.708-139.018,278.385-155.047,443.987c-0.925,9.565,6.198,18.06,15.912,18.973
				C2084.378,1223.674,2084.945,1223.699,2085.506,1223.699z"/>
			
				<linearGradient id="SVGID_00000008871983625706632930000008982442824031266736_" gradientUnits="userSpaceOnUse" x1="2970.9089" y1="2050.3757" x2="3554.2483" y2="2050.3757" gradientTransform="matrix(-1 0 0 1 6170.7925 0)">
				<stop  offset="0" style="stop-color:#FFC444"/>
				<stop  offset="0.9964" style="stop-color:#F36F56"/>
			</linearGradient>
			<path style="fill:url(#SVGID_00000008871983625706632930000008982442824031266736_);" d="M3163.614,2776.746l-340.663,220.247
				l-206.406-808.852l340.1-1084.383l96.439,30.196l146.327,1557.369C3202.723,2726.575,3188.419,2760.709,3163.614,2776.746z"/>
			
				<linearGradient id="SVGID_00000051348360980563311440000007061211945011760530_" gradientUnits="userSpaceOnUse" x1="3128.3958" y1="2050.3752" x2="3554.2483" y2="2050.3752" gradientTransform="matrix(-1 0 0 1 6170.7925 0)">
				<stop  offset="0" style="stop-color:#FFC444"/>
				<stop  offset="0.9964" style="stop-color:#F36F56"/>
			</linearGradient>
			<path style="opacity:0.3;fill:url(#SVGID_00000051348360980563311440000007061211945011760530_);" d="M2616.544,2188.14
				l340.1-1084.382l56.883,17.811c7.887,144.781,4.422,263.941-0.936,350.698c-22.799,369.198-98.517,471.938-61.837,729.497
				c30.5,214.158,97.105,243.224,91.283,387.309c-6.342,156.924-92.05,288.332-193.951,391.669l-25.137,16.249L2616.544,2188.14z"/>
			
				<linearGradient id="SVGID_00000089538925506291175020000005623310723202494343_" gradientUnits="userSpaceOnUse" x1="3826.8445" y1="1930.8396" x2="4959.5342" y2="3839.25" gradientTransform="matrix(-1 0 0 1 6170.7925 0)">
				<stop  offset="0" style="stop-color:#FFC444"/>
				<stop  offset="0.9964" style="stop-color:#F36F56"/>
			</linearGradient>
			<polygon style="fill:url(#SVGID_00000089538925506291175020000005623310723202494343_);" points="2956.645,1103.758 
				1673.764,1186.797 1266.072,2836.795 2822.951,2996.993 			"/>
			<g style="opacity:0.3;">
				
					<linearGradient id="SVGID_00000090985100569291675320000005178156509320389279_" gradientUnits="userSpaceOnUse" x1="3812.7339" y1="1740.8932" x2="4755.2905" y2="3954.4753" gradientTransform="matrix(-1 0 0 1 6170.7925 0)">
					<stop  offset="0" style="stop-color:#FFC444"/>
					<stop  offset="0.9964" style="stop-color:#F36F56"/>
				</linearGradient>
				<path style="fill:url(#SVGID_00000090985100569291675320000005178156509320389279_);" d="M1673.765,1186.796l669.031-43.304
					c11.289,21.105,26.243,55.486,29.028,99.347c16.471,259.411-433.745,343.392-474.082,661.812
					c-30.71,242.425,158.251,522.145,326.851,646.769c177.635,131.3,297.996,64.807,418.135,210.577
					c52.786,64.047,84.93,144.137,104.045,227.156l-1480.702-152.358L1673.765,1186.796z"/>
			</g>
			
				<linearGradient id="SVGID_00000152943103695538546300000017280825286555754676_" gradientUnits="userSpaceOnUse" x1="3985.6528" y1="418.5851" x2="3736.2922" y2="2547.061" gradientTransform="matrix(-1 0 0 1 6170.7925 0)">
				<stop  offset="0" style="stop-color:#AB316D"/>
				<stop  offset="1" style="stop-color:#792D3D"/>
			</linearGradient>
			<path style="fill:url(#SVGID_00000152943103695538546300000017280825286555754676_);" d="M2563.157,1252.296
				c8.019,0,15.276-5.411,17.187-13.43c3.61-15.154,87.063-373.222-30.608-548.95c-33.727-50.365-80.847-81.115-140.048-91.398
				c-304.187-52.777-491.47,590.545-499.294,617.957c-2.638,9.25,2.836,18.854,12.229,21.453
				c9.403,2.608,19.149-2.795,21.789-12.041c1.833-6.405,186.188-640.557,459.139-593.102c49.953,8.673,88.12,33.626,116.685,76.282
				c109.382,163.351,26.554,518.289,25.704,521.857c-2.229,9.352,3.668,18.714,13.166,20.909
				C2560.464,1252.147,2561.822,1252.296,2563.157,1252.296z"/>
			
				<linearGradient id="SVGID_00000068661443239309485330000006156559673193162916_" gradientUnits="userSpaceOnUse" x1="4216.7485" y1="97.1353" x2="3310.6462" y2="1820.9371" gradientTransform="matrix(-1 0 0 1 6170.7925 0)">
				<stop  offset="0" style="stop-color:#AB316D"/>
				<stop  offset="1" style="stop-color:#792D3D"/>
			</linearGradient>
			
				<ellipse style="fill:url(#SVGID_00000068661443239309485330000006156559673193162916_);" cx="2563.033" cy="1255.699" rx="49.376" ry="63.054"/>
			
				<linearGradient id="SVGID_00000163058423231097648440000013517784671289277858_" gradientUnits="userSpaceOnUse" x1="4687.9546" y1="419.8694" x2="3781.8557" y2="2143.6643" gradientTransform="matrix(-1 0 0 1 6170.7925 0)">
				<stop  offset="0" style="stop-color:#AB316D"/>
				<stop  offset="1" style="stop-color:#792D3D"/>
			</linearGradient>
			
				<ellipse style="fill:url(#SVGID_00000163058423231097648440000013517784671289277858_);" cx="1919.11" cy="1249.851" rx="49.376" ry="63.054"/>
		</g>
		<g>
			
				<linearGradient id="SVGID_00000066493654760131574690000006407982686178382522_" gradientUnits="userSpaceOnUse" x1="1647.3779" y1="1154.2806" x2="1800.9923" y2="1693.498">
				<stop  offset="0" style="stop-color:#AA80F9"/>
				<stop  offset="0.9964" style="stop-color:#6165D7"/>
			</linearGradient>
			<path style="fill:url(#SVGID_00000066493654760131574690000006407982686178382522_);" d="M1666.244,1171.89
				c9.395-7.185,18.792-14.37,28.186-21.554c8.222,2.333,143.223,42.911,169.949,161.66c3.677,16.336,17.225,76.532-15.75,115.234
				c-55.277,64.873-215.691,39.322-290.988-51.4c-59.168-71.289-66.517-183.713-32.332-204.769
				c41.372-25.483,164.701,69.839,174.095,77.099c18.852,14.571,35.97,30.078,38.965,27.358
				C1743.46,1270.895,1702.967,1217.947,1666.244,1171.89z"/>
			
				<linearGradient id="SVGID_00000111909282051836244530000000891132640450864318_" gradientUnits="userSpaceOnUse" x1="2005.4623" y1="902.3665" x2="1375.2852" y2="1430.0767" gradientTransform="matrix(-0.8459 -0.5334 -0.5334 0.8459 2993.7432 770.1409)">
				<stop  offset="0" style="stop-color:#444B8C"/>
				<stop  offset="0.9964" style="stop-color:#26264F"/>
			</linearGradient>
			<path style="fill:url(#SVGID_00000111909282051836244530000000891132640450864318_);" d="M1302.121,1121.248
				c25.973,8.029,63.525,30.421,115.923,22.211c15.774-2.472,71.656-11.226,91.467-57.526c17.442-40.76-7.388-81.871-10.477-86.841
				c-17.819-28.676-45.299-39.958-76.001-52.071c-39.81-15.705-57.763-12.502-87.344-20.003
				c-73.179-18.559-74.594-66.387-140.28-99.304c-83.955-42.075-124.95,14.358-194.61-22.776
				C922.599,763.25,950.25,679.33,881.169,623.689c-95.884-77.231-320.067-53.21-390.618,79.986
				c-40.747,76.927-33.078,195.622,24.433,262.258c33.521,38.84,81.63,59.497,79.225,94.129
				c-1.711,24.647-30.864,28.005-47.953,63.027c-22.036,45.147-1.617,96.976,1.681,105.345
				c30.604,77.698,170.191,125.515,293.153,108.944C1062.826,1307.494,1160.901,1077.606,1302.121,1121.248z"/>
			
				<linearGradient id="SVGID_00000125576204023321373160000008076294064961019526_" gradientUnits="userSpaceOnUse" x1="1143.774" y1="1215.1431" x2="1509.4108" y2="2498.6018">
				<stop  offset="0" style="stop-color:#AA80F9"/>
				<stop  offset="0.9964" style="stop-color:#6165D7"/>
			</linearGradient>
			<path style="fill:url(#SVGID_00000125576204023321373160000008076294064961019526_);" d="M1237.177,1143.306
				c69.116-0.262,154.677,0.494,242.121,9.724c188.005,19.845,180.609,113.387,146.567,198.664
				c-34.739,87.025-33.532,163.869-32.832,191.207c1.125,44.044,9.127,79.352,25.138,149.973
				c27.81,122.68,48.522,150.855,28.941,182.226c-28.555,45.741-108.579,43.485-122.612,42.81
				c-71.076-3.421-86.156-45.134-146.084-51.731c-69.626-7.67-85.721,44.622-182.533,79.805
				c-114.267,41.53-261.376,30.543-329.705-45.961c-26.384-29.541-43.315-70.352-31.97-83.201
				c15.445-17.491,69.169,32.838,126.365,12.875c37.889-13.227,34.467-42.347,79.839-70.76
				c54.604-34.195,86.724-9.031,123.749-31.102c57.752-34.434,45.331-134.859,50.004-300.184
				C1216.1,1359.207,1221.473,1261.794,1237.177,1143.306z"/>
			
				<linearGradient id="SVGID_00000012468075867675333530000006034761533847110038_" gradientUnits="userSpaceOnUse" x1="1050.087" y1="1241.8322" x2="1415.7233" y2="2525.2891">
				<stop  offset="0" style="stop-color:#AA80F9"/>
				<stop  offset="0.9964" style="stop-color:#6165D7"/>
			</linearGradient>
			<path style="fill:url(#SVGID_00000012468075867675333530000006034761533847110038_);" d="M1237.176,1143.306
				c-100.275,4.891-136.123,109.268-240.807,129.861c-63.427,12.479-158.034-4.644-293.88-136.593
				c-19.255,8.906-38.511,17.816-57.768,26.726c19.788,118.475,74.768,184.958,101.756,212.955
				c154.184,159.947,446.614,155.046,604.959,17.922c49.691-43.03,77.704-91.748,92.924-123.763
				C1394.313,1208.166,1321.467,1139.199,1237.176,1143.306z"/>
			
				<linearGradient id="SVGID_00000169526146066198781730000001384353398188216475_" gradientUnits="userSpaceOnUse" x1="934.2125" y1="1342.1323" x2="833.9357" y2="979.4301" gradientTransform="matrix(-0.993 -0.1185 -0.1185 0.993 2447.3235 124.8413)">
				<stop  offset="0" style="stop-color:#FFC444"/>
				<stop  offset="0.9964" style="stop-color:#F36F56"/>
			</linearGradient>
			<path style="fill:url(#SVGID_00000169526146066198781730000001384353398188216475_);" d="M1456.705,1066.115
				c-6.261-4.498-15.058-1.566-17.43,5.77c-6.565,20.308-20.134,54.86-38.628,63.494c-26.63,12.423-66.725,6.968-71.792,11.899
				c-5.046,4.906,119.566,69.581,202.592,40.182c0.583-0.207,1.149-0.461,1.694-0.755l4.728-2.546
				c9.373-5.047,7.253-19.052-3.19-21.116c-16.018-3.166-57.974-15.209-68.532-33.507c-1.212-2.1-1.555-18.612-1.249-21.018
				l3.404-26.754c0.526-4.132-1.254-8.219-4.637-10.649L1456.705,1066.115z"/>
			
				<linearGradient id="SVGID_00000029757817260853155550000012045559374713847214_" gradientUnits="userSpaceOnUse" x1="929.1049" y1="992.6534" x2="602.8615" y2="1264.1577" gradientTransform="matrix(-0.993 -0.1185 -0.1185 0.993 2447.3235 124.8413)">
				<stop  offset="0" style="stop-color:#FFC444"/>
				<stop  offset="0.9964" style="stop-color:#F36F56"/>
			</linearGradient>
			<path style="fill:url(#SVGID_00000029757817260853155550000012045559374713847214_);" d="M1437.089,1080.112
				c0,0,13.515,24.118,39.97,17.896c23.69-5.567,17.139-65.816-0.069-74.651c-5.738-2.946-16.885-3.277-24.808,0.441
				c-5.571,2.619-21.47,18.163-15.833,38.387c-5.535-2.345-10.764-1.44-12.366,1.25c-2.034,3.412,2.236,8.895,3.203,10.138
				C1430.54,1077.881,1435.011,1079.507,1437.089,1080.112z"/>
			
				<linearGradient id="SVGID_00000067949909165965905190000005862193072463533194_" gradientUnits="userSpaceOnUse" x1="682.5927" y1="959.826" x2="656.0637" y2="1445.6344">
				<stop  offset="0" style="stop-color:#FFC444"/>
				<stop  offset="0.9964" style="stop-color:#F36F56"/>
			</linearGradient>
			<path style="fill:url(#SVGID_00000067949909165965905190000005862193072463533194_);" d="M686.29,1144.067l-9.458-18.642
				c0,0,48.301-79.006,8.712-91.691c-39.589-12.686-28.429,9.908-23.94,20.687c4.489,10.777-2.741,45.923-9.617,56.659
				c-6.878,10.737,5.083,46.504,5.083,46.504L686.29,1144.067z"/>
			
				<linearGradient id="SVGID_00000031889391832923509450000011792746282154601651_" gradientUnits="userSpaceOnUse" x1="755.5759" y1="1613.2352" x2="1293.5271" y2="1613.2352">
				<stop  offset="0" style="stop-color:#AA80F9"/>
				<stop  offset="0.9964" style="stop-color:#6165D7"/>
			</linearGradient>
			<path style="opacity:0.3;fill:url(#SVGID_00000031889391832923509450000011792746282154601651_);" d="M1028.423,1893.768
				c24.975-16.998,7.786-50.329,36.054-77.256c25.869-24.639,54.181-9.982,100.432-23.176
				c55.598-15.862,98.67-61.004,118.458-100.433c14.108-28.109,12.975-46.526,0-190.561
				c-12.357-137.17-15.853-170.672-33.477-175.111c-32.072-8.08-60.792,92.695-123.608,92.706
				c-35.479,0.008-40.287-32.139-84.981-48.929c-75.859-28.499-130.081,38.533-211.166,36.05
				c-20.726-0.633-45.866-6.036-74.558-22.173c116.854,112.757,305.094,137.391,457.697,86.306
				c-2.068,139.413,3.358,225.36-49.112,256.644c-37.024,22.07-69.145-3.094-123.749,31.102
				c-45.373,28.413-41.95,57.533-79.839,70.76c-57.194,19.963-110.92-30.366-126.364-12.875
				c-10.288,11.653,2.773,46.225,24.957,74.611c13.031-5.401,27.411-9.316,43.074-10.539
				C962.095,1876.227,998.956,1913.822,1028.423,1893.768z"/>
			
				<linearGradient id="SVGID_00000075856254694463787950000010927295955728607423_" gradientUnits="userSpaceOnUse" x1="1878.1711" y1="1028.1963" x2="1959.931" y2="1028.1963">
				<stop  offset="0" style="stop-color:#AA80F9"/>
				<stop  offset="0.9964" style="stop-color:#6165D7"/>
			</linearGradient>
			<path style="fill:url(#SVGID_00000075856254694463787950000010927295955728607423_);" d="M1878.171,940.48l3.381-19.368
				l25.031-6.122c5.585-1.366,11.4,1.048,14.383,5.963c15.798,26.026,59.536,111.103,27.545,211.567
				c-1.679,5.274-6.483,8.941-12.014,9.166c-10.046,0.409-20.96-0.646-20.96-0.646L1878.171,940.48z"/>
			
				<linearGradient id="SVGID_00000176041300926060088360000004337828181282779556_" gradientUnits="userSpaceOnUse" x1="7501.7607" y1="371.882" x2="7416.1411" y2="559.8096" gradientTransform="matrix(0.6358 0.7719 -0.7719 0.6358 -2749.4717 -4925.5059)">
				<stop  offset="0" style="stop-color:#AB316D"/>
				<stop  offset="1" style="stop-color:#792D3D"/>
			</linearGradient>
			<path style="fill:url(#SVGID_00000176041300926060088360000004337828181282779556_);" d="M1685.791,1084.15l-21.535,57.108
				c0,0-8.433,15.201-9.478,22.411c-10.503,4.208-27.418-0.909-27.418-0.909l5.577-75.71l51.229-4.101L1685.791,1084.15z"/>
			
				<linearGradient id="SVGID_00000018953982200219930920000006457158677734302630_" gradientUnits="userSpaceOnUse" x1="1182.9291" y1="1305.499" x2="1231.2318" y2="1346.6217" gradientTransform="matrix(0.962 0.2729 -0.2729 0.962 858.1024 -466.6242)">
				<stop  offset="0" style="stop-color:#FFC444"/>
				<stop  offset="0.9964" style="stop-color:#F36F56"/>
			</linearGradient>
			<path style="fill:url(#SVGID_00000018953982200219930920000006457158677734302630_);" d="M1688.194,1159.025l-7.401-23.375
				c0,0-8.917-19.278-34.069-22.566c-25.152-3.287-24.872,10.287-24.872,10.287l16.405,4.852c0,0,10.616,3.068,17.895,18.445
				c10.183,15.662,20.495,22.845,20.495,22.845L1688.194,1159.025z"/>
			
				<linearGradient id="SVGID_00000061429467814014703620000004036976852491647128_" gradientUnits="userSpaceOnUse" x1="1867.3789" y1="927.2175" x2="1531.6243" y2="1419.6572">
				<stop  offset="0" style="stop-color:#444B8C"/>
				<stop  offset="0.9964" style="stop-color:#26264F"/>
			</linearGradient>
			<path style="fill:url(#SVGID_00000061429467814014703620000004036976852491647128_);" d="M1594.239,1043.364
				c0,0,206.055-46.886,287.313-122.252c77.657,81.48,33.986,219.93,33.986,219.93s-224.069-51.293-314.125-40.348
				C1582.349,1082.669,1594.239,1043.364,1594.239,1043.364z"/>
			
				<linearGradient id="SVGID_00000166652382929631952870000006559214328685696655_" gradientUnits="userSpaceOnUse" x1="1955.5236" y1="1021.0787" x2="2052.3977" y2="1021.0787">
				<stop  offset="0" style="stop-color:#AA80F9"/>
				<stop  offset="0.9964" style="stop-color:#6165D7"/>
			</linearGradient>
			<path style="fill:url(#SVGID_00000166652382929631952870000006559214328685696655_);" d="M1992.716,1179.242
				c-4.123-5.005-5.48-12.032-2.931-18.493c70.221-178.091-27.417-271.708-28.379-272.607c-7.46-6.92-7.876-18.594-0.947-26.05
				c6.932-7.453,18.593-7.877,26.05-0.948c4.835,4.482,116.92,111.888,37.569,313.124c-3.732,9.47-14.44,14.122-23.906,10.387
				C1997.156,1183.471,1994.635,1181.572,1992.716,1179.242z"/>
		</g>
		<g>
			
				<linearGradient id="SVGID_00000182488153792790122090000008883178262907540126_" gradientUnits="userSpaceOnUse" x1="266.278" y1="2260.4563" x2="563.942" y2="2308.2952">
				<stop  offset="0" style="stop-color:#FF9085"/>
				<stop  offset="1" style="stop-color:#FB6FBB"/>
			</linearGradient>
			<path style="fill:url(#SVGID_00000182488153792790122090000008883178262907540126_);" d="M2474.473,2945.302
				c0,28.992-20.583,53.933-45.837,55.43L649.259,3109.416c-33.71,1.998-71.762-26.522-71.762-60.223v-1245.25
				c0-33.701,38.968-62.037,72.677-60.64l1778.462,76.129c25.255,1.047,45.837,25.622,45.837,54.613V2945.302z"/>
			
				<linearGradient id="SVGID_00000093165913097377773260000011003851129120734851_" gradientUnits="userSpaceOnUse" x1="1010.2459" y1="1811.4014" x2="2243.427" y2="3283.7766">
				<stop  offset="0" style="stop-color:#FF9085"/>
				<stop  offset="1" style="stop-color:#FB6FBB"/>
			</linearGradient>
			<path style="fill:url(#SVGID_00000093165913097377773260000011003851129120734851_);" d="M2507.462,2947.336
				c0,29.133-20.682,54.194-46.06,55.698L663.021,3109.642c-33.872,2.008-61.712-24.048-61.712-57.912V1800.455
				c0-33.864,27.84-60.416,61.712-59.011l1798.382,74.575c25.377,1.052,46.06,25.746,46.06,54.878V2947.336z"/>
			<g>
				
					<linearGradient id="SVGID_00000177471489947171940640000012404089846513682613_" gradientUnits="userSpaceOnUse" x1="1066.1204" y1="2663.2822" x2="2682.0127" y2="3173.5649">
					<stop  offset="0" style="stop-color:#444B8C"/>
					<stop  offset="0.9964" style="stop-color:#26264F"/>
				</linearGradient>
				<polygon style="fill:url(#SVGID_00000177471489947171940640000012404089846513682613_);" points="2507.462,2653.997 
					601.309,2751.785 601.309,2980.946 2507.462,2869.056 				"/>
			</g>
			<g>
				<g style="opacity:0.15;">
					
						<linearGradient id="SVGID_00000163030620713773302360000013961364182776425387_" gradientUnits="userSpaceOnUse" x1="805.9986" y1="2297.8215" x2="1624.5201" y2="2297.8215" gradientTransform="matrix(0.9999 0.0151 -0.0151 0.9999 8.0381 -12.9012)">
						<stop  offset="0" style="stop-color:#FF9085"/>
						<stop  offset="1" style="stop-color:#FB6FBB"/>
					</linearGradient>
					<path style="fill:url(#SVGID_00000163030620713773302360000013961364182776425387_);" d="M1163.876,2155.223
						c-2.152,142.203-91.093,216.104-190.114,215.724c-107.888-0.414-194.371-83.133-192.315-218.954
						c1.954-129.142,83.308-221.144,204.188-212.114C1102.922,1948.641,1165.632,2039.162,1163.876,2155.223z M907.752,2152.495
						c-1.123,74.183,23.151,128.102,70.574,128.981c45.642,0.846,68.394-45.654,69.572-123.48
						c1.065-70.364-16.983-125.869-66.823-128.858C932.58,2026.229,908.825,2081.585,907.752,2152.495z M1007.869,2609.672
						l343.614-622.132c6.572-11.898,19.474-18.877,33.028-17.864h0c25.202,1.883,40.041,29.169,27.924,51.347l-339.812,621.964
						c-5.834,10.677-16.823,17.528-28.978,18.066l-3.801,0.168C1012.712,2662.422,994.738,2633.446,1007.869,2609.672z
						 M1595.809,2434.348c-1.993,131.705-78.337,203.769-163.05,207.489c-91.116,4.001-164.62-68.647-163.695-193.814
						c1.801-119.039,71.15-207.519,174.294-204.75C1543.734,2245.968,1597.436,2326.852,1595.809,2434.348z M1377.569,2442.991
						c-1.97,68.496,18.686,117.223,59.184,116.039c39.024-1.141,58.542-45.078,59.632-117.055
						c0.985-65.075-13.503-115.547-56.104-116.065C1397.954,2325.396,1378.56,2377.535,1377.569,2442.991z"/>
				</g>
				<g>
					<path style="fill:#FFFFFF;" d="M1180.471,2148.601c-2.152,142.203-91.093,216.104-190.114,215.724
						c-107.888-0.414-194.37-83.133-192.315-218.954c1.954-129.141,83.308-221.144,204.188-212.114
						C1119.517,1942.019,1182.227,2032.54,1180.471,2148.601z M924.347,2145.873c-1.122,74.183,23.151,128.103,70.574,128.981
						c45.642,0.845,68.394-45.654,69.572-123.48c1.065-70.363-16.983-125.868-66.824-128.858
						C949.175,2019.607,925.42,2074.963,924.347,2145.873z M1024.464,2603.05l343.614-622.132
						c6.572-11.898,19.474-18.876,33.028-17.864h0c25.202,1.883,40.041,29.17,27.924,51.347l-339.813,621.963
						c-5.833,10.677-16.823,17.528-28.977,18.066l-3.801,0.168C1029.306,2655.8,1011.333,2626.824,1024.464,2603.05z
						 M1612.404,2427.726c-1.993,131.705-78.337,203.77-163.05,207.489c-91.116,4.001-164.62-68.646-163.695-193.814
						c1.801-119.038,71.15-207.519,174.294-204.75C1560.329,2239.346,1614.031,2320.23,1612.404,2427.726z M1394.164,2436.37
						c-1.97,68.496,18.686,117.223,59.184,116.039c39.024-1.141,58.542-45.078,59.632-117.055
						c0.985-65.076-13.503-115.547-56.104-116.065C1414.549,2318.774,1395.155,2370.914,1394.164,2436.37z"/>
				</g>
			</g>
			
				<linearGradient id="SVGID_00000012440474083811819450000001330465513062558851_" gradientUnits="userSpaceOnUse" x1="1337.2527" y1="1537.5165" x2="2570.4341" y2="3009.8921">
				<stop  offset="0" style="stop-color:#FF9085"/>
				<stop  offset="1" style="stop-color:#FB6FBB"/>
			</linearGradient>
			<path style="opacity:0.3;fill:url(#SVGID_00000012440474083811819450000001330465513062558851_);" d="M2461.402,1816.019
				l-1777.668-73.717c80.236,237.605,195.142,344.038,293.826,396.135c187.89,99.189,322.646,4.466,483.705,132.886
				c165.231,131.746,102.345,294.384,276.403,403.973c130.821,82.366,215.145,21.218,350.819,95.678
				c100.493,55.151,163.267,148.545,203.428,242.108l169.488-10.047c25.377-1.505,46.06-26.566,46.06-55.698V1870.897
				C2507.462,1841.764,2486.78,1817.071,2461.402,1816.019z"/>
			
				<linearGradient id="SVGID_00000057850068360720292530000005266986706543306655_" gradientUnits="userSpaceOnUse" x1="1572.6102" y1="2695.865" x2="2376.5796" y2="2695.865">
				<stop  offset="0" style="stop-color:#FF9085"/>
				<stop  offset="1" style="stop-color:#FB6FBB"/>
			</linearGradient>
			<path style="opacity:0.3;fill:url(#SVGID_00000057850068360720292530000005266986706543306655_);" d="M2351.54,2385.499
				l-43.375-41.157l-41.157,43.375l-43.375-41.158l-41.157,43.375l-43.375-41.157l-41.157,43.375l-43.375-41.157l-41.158,43.375
				l-43.375-41.157l-41.158,43.375l-43.375-41.157l-41.157,43.375l-43.375-41.157l-41.157,43.375l-43.375-41.157l-41.157,43.375
				l-55.422-52.587c0,20.995,0,649.731,0,649.731s-2.267,37.212-47.25,47.001l767.142-56.241c8.755-0.65,16.956-3.112,24.318-6.93
				c7.731-9.944,12.51-22.928,12.51-36.88V2359.11L2351.54,2385.499z"/>
		</g>
		<g>
			<path style="fill:#FFFFFF;" d="M2404.603,2425.365l-43.375-41.158l-41.157,43.376l-43.375-41.157l-41.157,43.375l-43.375-41.156
				l-41.157,43.375l-43.375-41.157l-41.157,43.375l-43.375-41.157l-41.157,43.375l-43.375-41.157l-41.157,43.375l-43.375-41.157
				l-41.157,43.375l-43.375-41.157l-41.157,43.375l-55.422-52.587c0,20.995,0,649.73,0,649.73s-2.267,37.211-47.251,47.001
				l767.141-56.241c32.931-2.449,58.4-29.882,58.4-62.904v-591.868L2404.603,2425.365z"/>
			<g>
				<path style="fill:#F4F7FA;" d="M2364.316,2719.984l-94.87,4.278c-6.381,0.288-11.406,5.545-11.406,11.932v43.542
					c0,6.861,5.767,12.312,12.617,11.925l94.87-5.348c6.326-0.356,11.272-5.59,11.272-11.926v-42.471
					C2376.799,2725.109,2371.117,2719.678,2364.316,2719.984z"/>
				<path style="fill:#F4F7FA;" d="M2364.182,2804.136l-94.87,5.348c-6.325,0.357-11.272,5.59-11.272,11.926v45.466
					c0,6.896,5.824,12.36,12.705,11.92l94.869-6.057c6.289-0.401,11.184-5.618,11.184-11.92v-44.758
					C2376.799,2809.201,2371.032,2803.75,2364.182,2804.136z"/>
				<path style="fill:#F4F7FA;" d="M2376.799,2599.295v-77.909c0-6.765-5.613-12.18-12.374-11.937l-94.87,3.415
					c-6.425,0.231-11.515,5.507-11.515,11.937v78.772c0,6.808,5.681,12.239,12.483,11.933l94.869-4.278
					C2371.773,2610.94,2376.799,2605.682,2376.799,2599.295z"/>
			</g>
			<g>
				<path style="fill:#F4F7FA;" d="M2167.205,2728.873l-386.296,17.418c-6.381,0.288-11.407,5.544-11.407,11.932v49.05
					c0,6.861,5.767,12.312,12.617,11.926l386.296-21.775c6.326-0.356,11.272-5.59,11.272-11.925v-44.694
					C2179.688,2733.997,2174.006,2728.566,2167.205,2728.873z"/>
				<path style="fill:#F4F7FA;" d="M2167.071,2815.247l-386.296,21.774c-6.326,0.357-11.273,5.59-11.273,11.926v49.116
					c0,6.896,5.823,12.36,12.706,11.92l386.296-24.66c6.289-0.401,11.184-5.619,11.184-11.92v-46.231
					C2179.688,2820.312,2173.921,2814.861,2167.071,2815.247z"/>
				<path style="fill:#F4F7FA;" d="M2179.688,2608.183v-79.701c0-6.765-5.613-12.18-12.375-11.937l-386.295,13.907
					c-6.425,0.231-11.515,5.507-11.515,11.937v83.212c0,6.808,5.682,12.239,12.483,11.932l386.296-17.418
					C2174.662,2619.827,2179.688,2614.57,2179.688,2608.183z"/>
			</g>
		</g>
	</g>
</g>
</svg>
