<?xml version="1.0" encoding="utf-8"?>
<!-- Generator: Adobe Illustrator 27.5.0, SVG Export Plug-In . SVG Version: 6.00 Build 0)  -->
<svg version="1.1" xmlns="http://www.w3.org/2000/svg" xmlns:xlink="http://www.w3.org/1999/xlink" x="0px" y="0px"
	 viewBox="0 0 500 500" style="enable-background:new 0 0 500 500;" xml:space="preserve">
<g id="Background_Complete">
	<g>
		<rect y="382.398" style="fill:transparent;" width="500" height="0.25"/>
		<rect x="416.779" y="398.494" style="fill:#EBEBEB;" width="33.122" height="0.25"/>
		<rect x="322.527" y="401.208" style="fill:#EBEBEB;" width="8.693" height="0.25"/>
		<rect x="396.586" y="389.208" style="fill:#EBEBEB;" width="19.192" height="0.25"/>
		<rect x="52.459" y="390.888" style="fill:#EBEBEB;" width="43.193" height="0.25"/>
		<rect x="104.556" y="390.888" style="fill:#EBEBEB;" width="6.333" height="0.25"/>
		<rect x="131.471" y="395.111" style="fill:#EBEBEB;" width="93.676" height="0.25"/>
		<path style="fill:#EBEBEB;" d="M237.014,337.8H43.915c-3.147,0-5.708-2.561-5.708-5.708V60.66c0-3.147,2.561-5.708,5.708-5.708
			h193.099c3.146,0,5.707,2.561,5.707,5.708v271.432C242.721,335.239,240.16,337.8,237.014,337.8z M43.915,55.203
			c-3.01,0-5.458,2.448-5.458,5.458v271.432c0,3.01,2.448,5.458,5.458,5.458h193.099c3.009,0,5.457-2.448,5.457-5.458V60.66
			c0-3.009-2.448-5.458-5.457-5.458H43.915z"/>
		<path style="fill:#EBEBEB;" d="M453.31,337.8H260.212c-3.147,0-5.707-2.561-5.707-5.708V60.66c0-3.147,2.561-5.708,5.707-5.708
			H453.31c3.148,0,5.708,2.561,5.708,5.708v271.432C459.019,335.239,456.458,337.8,453.31,337.8z M260.212,55.203
			c-3.009,0-5.457,2.448-5.457,5.458v271.432c0,3.01,2.448,5.458,5.457,5.458H453.31c3.01,0,5.458-2.448,5.458-5.458V60.66
			c0-3.009-2.448-5.458-5.458-5.458H260.212z"/>
	</g>
	<g>
		<g>
			<path style="fill:#E0E0E0;" d="M334.093,380.005c-1.516,0-2.746,1.229-2.746,2.746h27.562c0-1.516-1.229-2.746-2.746-2.746
				h-7.724v-47.009h5.959v-63.044h-5.959v-12.604v-6.311h-6.622H174.264h-6.622v6.311v12.604h-4.146v63.044h4.146v47.009h-7.724
				c-1.516,0-2.745,1.229-2.745,2.746h27.561c0-1.516-1.229-2.746-2.746-2.746h-7.724v-47.009h167.553v47.009H334.093z
				 M174.264,269.951v-12.604h167.553v12.604H174.264z"/>
		</g>
		<polygon style="fill:#F0F0F0;" points="427.507,166.654 382.776,166.654 382.776,227.612 402.762,227.612 402.762,382.75 
			407.522,382.75 407.522,227.612 427.507,227.612 		"/>
		<polygon style="fill:#F0F0F0;" points="181.65,94.898 181.65,145.727 83.053,145.727 83.053,94.898 89.132,94.898 89.132,79.763 
			92.359,79.763 92.359,94.898 172.335,94.898 172.335,79.763 175.571,79.763 175.571,94.898 		"/>
		<polygon style="fill:#F0F0F0;" points="330.178,94.898 330.178,145.727 231.583,145.727 231.583,94.898 237.661,94.898 
			237.661,79.763 240.888,79.763 240.888,94.898 320.864,94.898 320.864,79.763 324.1,79.763 324.1,94.898 		"/>
		<g>
			<path style="fill:#EBEBEB;" d="M247.986,380.005c-1.516,0-2.746,1.229-2.746,2.746h27.562c0-1.516-1.229-2.746-2.745-2.746
				h-7.724v-47.009h5.959v-63.044h-5.959v-12.604v-6.311h-6.622H88.157h-6.622v6.311v12.604h-4.146v63.044h4.146v47.009h-7.724
				c-1.516,0-2.745,1.229-2.745,2.746h27.561c0-1.516-1.229-2.746-2.746-2.746h-7.724v-47.009H255.71v47.009H247.986z
				 M88.157,269.951v-12.604H255.71v12.604H88.157z"/>
		</g>
	</g>
</g>
<g id="Background_Simple" style="display:none;">
	<g style="display:inline;">
		<path style="fill:#407BFF;" d="M88.093,118.847c27.919-59.449,127.059-51.062,165.317-9.255
			c38.258,41.806,50.696,68.599,85.208,52.983c34.512-15.616,78.518-11.44,81.042,38.164s-37.913,108.263-102.09,125.615
			c-64.177,17.352-64.161,78.759-149.1,66.368c-46.31-6.756-47.365-56.86-40.825-98.301S55.715,187.79,88.093,118.847z"/>
		<path style="opacity:0.9;fill:#FFFFFF;" d="M88.093,118.847c27.919-59.449,127.059-51.062,165.317-9.255
			c38.258,41.806,50.696,68.599,85.208,52.983c34.512-15.616,78.518-11.44,81.042,38.164s-37.913,108.263-102.09,125.615
			c-64.177,17.352-64.161,78.759-149.1,66.368c-46.31-6.756-47.365-56.86-40.825-98.301S55.715,187.79,88.093,118.847z"/>
	</g>
</g>
<g id="Shadow_1_">
	<ellipse id="_x3C_Path_x3E__359_" style="fill:#F5F5F5;" cx="250" cy="416.238" rx="193.889" ry="11.323"/>
</g>
<g id="Plant">
	<g>
		<path style="fill:#263238;" d="M409.157,377.954c0,0,1.269-9.298,7.215-10.316c5.946-1.017,4.153-5.513,5.702-7.253
			c1.549-1.74,5.595,3.394,2.129,8.368c-3.466,4.974-0.633,3.411-2.129,8.036C420.577,381.413,408.613,385.661,409.157,377.954z"/>
		<path style="opacity:0.2;fill:#FFFFFF;enable-background:new    ;" d="M409.157,377.954c0,0,1.269-9.298,7.215-10.316
			c5.946-1.017,4.153-5.513,5.702-7.253c1.549-1.74,5.595,3.394,2.129,8.368c-3.466,4.974-0.633,3.411-2.129,8.036
			C420.577,381.413,408.613,385.661,409.157,377.954z"/>
		
			<path style="fill:none;stroke:#263238;stroke-width:0.8247;stroke-linecap:round;stroke-linejoin:round;stroke-miterlimit:10;" d="
			M409.404,383.991c0,0,4.558-9.472,2.165-24.931c-2.392-15.458-11.379-21.458-3.568-38.467
			c7.811-17.01,16.737-29.138,12.272-41.208"/>
		<path style="fill:#263238;" d="M412.837,382.132c0,0,3.844-5.792-1.704-8.77c-5.547-2.977-6.659-0.581-10.091-2.721
			c-3.432-2.141-6.033-7.33-6.618-4.011c-0.585,3.32,3.379,5.214,1.977,6.732C394.999,374.881,405.731,384.743,412.837,382.132z"/>
		<g>
			<path style="fill:#263238;" d="M421.903,284.222c0,0,3.746-11.382-4.771-11.62C408.616,272.364,418.003,283.009,421.903,284.222z
				"/>
			<path style="fill:#263238;" d="M414.507,292.972c0,0-2.538-10.349-8.583-8.166C399.879,286.989,408.481,293.163,414.507,292.972z
				"/>
			<path style="fill:#263238;" d="M424.761,293.869c0,0-0.911-8.259,5.503-8.423C436.678,285.283,433.824,292.535,424.761,293.869z"
				/>
			<path style="fill:#263238;" d="M420.494,310.716c0,0,8.609-7.674,11.704-1.963C435.294,314.464,425.705,315.654,420.494,310.716z
				"/>
			<path style="fill:#263238;" d="M405.263,309.354c0,0-1.618-12.746-8.572-8.748C389.737,304.605,399.205,310.628,405.263,309.354z
				"/>
			<path style="fill:#263238;" d="M399.145,327.603c0,0,5.133-12.879-4.405-11.428C385.202,317.626,392.412,324.477,399.145,327.603
				z"/>
			<path style="fill:#263238;" d="M413.781,332.198c0,0,8.057-9.491,14.213-6.481C434.151,328.727,429.119,338.162,413.781,332.198z
				"/>
			<path style="fill:#263238;" d="M406.47,353.226c0,0-6.863-15.24-12.966-10.104C387.402,348.258,397.397,355.937,406.47,353.226z"
				/>
			<path style="fill:#263238;" d="M416.444,352.334c0,0-1.814-11.822,4.981-10.872C428.22,342.413,426.435,349.645,416.444,352.334z
				"/>
			<g style="opacity:0.2;enable-background:new    ;">
				<path style="fill:#FFFFFF;" d="M421.903,284.222c0,0,3.746-11.382-4.771-11.62C408.616,272.364,418.003,283.009,421.903,284.222
					z"/>
				<path style="fill:#FFFFFF;" d="M414.507,292.972c0,0-2.538-10.349-8.583-8.166C399.879,286.989,408.481,293.163,414.507,292.972
					z"/>
				<path style="fill:#FFFFFF;" d="M424.761,293.869c0,0-0.911-8.259,5.503-8.423C436.678,285.283,433.824,292.535,424.761,293.869z
					"/>
				<path style="fill:#FFFFFF;" d="M420.494,310.716c0,0,8.609-7.674,11.704-1.963C435.294,314.464,425.705,315.654,420.494,310.716
					z"/>
				<path style="fill:#FFFFFF;" d="M405.263,309.354c0,0-1.618-12.746-8.572-8.748C389.737,304.605,399.205,310.628,405.263,309.354
					z"/>
				<path style="fill:#FFFFFF;" d="M399.145,327.603c0,0,5.133-12.879-4.405-11.428
					C385.202,317.626,392.412,324.477,399.145,327.603z"/>
				<path style="fill:#FFFFFF;" d="M413.781,332.198c0,0,8.057-9.491,14.213-6.481C434.151,328.727,429.119,338.162,413.781,332.198
					z"/>
				<path style="fill:#FFFFFF;" d="M406.47,353.226c0,0-6.863-15.24-12.966-10.104C387.402,348.258,397.397,355.937,406.47,353.226z
					"/>
				<path style="fill:#FFFFFF;" d="M416.444,352.334c0,0-1.814-11.822,4.981-10.872C428.22,342.413,426.435,349.645,416.444,352.334
					z"/>
			</g>
		</g>
		
			<path style="fill:none;stroke:#263238;stroke-width:0.8247;stroke-linecap:round;stroke-linejoin:round;stroke-miterlimit:10;" d="
			M426.896,291.161c0,0-3.663,5.444-8.676,8.25c0,0-3.315-6.397-5.902-7.948"/>
		
			<path style="fill:none;stroke:#263238;stroke-width:0.8247;stroke-linecap:round;stroke-linejoin:round;stroke-miterlimit:10;" d="
			M427.104,309.953c0,0-9.316-0.3-16.691,5.274c0,0-4.094-6.94-9.466-10.103"/>
		
			<path style="fill:none;stroke:#263238;stroke-width:0.8247;stroke-linecap:round;stroke-linejoin:round;stroke-miterlimit:10;" d="
			M396.336,321.504c0,0,3.999,10.526,9.106,14.621c0,0,10.583-6.135,18.354-6.288"/>
		
			<path style="fill:none;stroke:#263238;stroke-width:0.8247;stroke-linecap:round;stroke-linejoin:round;stroke-miterlimit:10;" d="
			M420.639,345.297c0,0-5.229,10.208-9.13,12.438c0,0-3.646-5.142-11.533-7.509"/>
		<path style="fill:#263238;" d="M412.247,380.751c0,0,3.296-5.246,7.018-5.993c3.722-0.747,5.326-5.034,6.699-2.456
			C427.338,374.881,423.55,383.43,412.247,380.751z"/>
		<g>
			<polygon style="fill:#407BFF;" points="429.35,401.341 393.364,401.341 390.955,379.144 431.759,379.144 			"/>
			<polygon style="fill:#407BFF;" points="432.599,383.349 390.115,383.349 389.572,378.646 433.142,378.646 			"/>
			<polygon style="opacity:0.3;fill:#FFFFFF;" points="432.599,383.349 390.115,383.349 389.572,378.646 433.142,378.646 			"/>
		</g>
	</g>
</g>
<g id="Mannequin">
	<g>
		<path style="fill:#263238;" d="M119.027,276.806c3.893,8.983,7.878,21.303,8.59,35.057c0.101,1.956-1.215,3.628-3.016,4.103
			c-0.338,0.1-0.704,0.146-1.069,0.146H105.1v81.473h12.411c2.075,0,3.756,1.681,3.756,3.756H83.514
			c0-2.074,1.681-3.756,3.756-3.756H99.68v-81.473H81.247c-0.366,0-0.731-0.046-1.069-0.146c-1.8-0.475-3.107-2.148-3.007-4.103
			c0.704-13.754,4.688-26.073,8.582-35.057c4.405-10.181,3.957-21.796-1.197-31.612c-4.277-8.134-8.252-16.578-7.375-18.351
			c1.801-3.628,3.601-5.374,12.593-6.425c5.886-0.695,7.019-4.131,7.092-6.415c0.046-1.142-0.448-2.239-1.289-3.007
			c-8.252-7.512-8.709-24.73,5.237-26.951l0.009-0.238c0.466,0,0.914,0.018,1.343,0.046c0.155,0.009,0.301,0.009,0.448,0
			c0.439-0.027,0.886-0.046,1.343-0.046l0.009,0.238c13.946,2.221,13.489,19.438,5.237,26.951c-0.841,0.768-1.325,1.864-1.288,3.007
			c0.073,2.285,1.206,5.721,7.092,6.415c9.002,1.051,10.793,2.797,12.593,6.425c0.887,1.773-3.089,10.217-7.366,18.351
			C115.07,255.01,114.622,266.625,119.027,276.806z"/>
		<path style="opacity:0.4;fill:#FFFFFF;" d="M119.027,276.806c3.893,8.983,7.878,21.303,8.59,35.057
			c0.101,1.956-1.215,3.628-3.016,4.103c-0.338,0.1-0.704,0.146-1.069,0.146H105.1v81.473h12.411c2.075,0,3.756,1.681,3.756,3.756
			H83.514c0-2.074,1.681-3.756,3.756-3.756H99.68v-81.473H81.247c-0.366,0-0.731-0.046-1.069-0.146
			c-1.8-0.475-3.107-2.148-3.007-4.103c0.704-13.754,4.688-26.073,8.582-35.057c4.405-10.181,3.957-21.796-1.197-31.612
			c-4.277-8.134-8.252-16.578-7.375-18.351c1.801-3.628,3.601-5.374,12.593-6.425c5.886-0.695,7.019-4.131,7.092-6.415
			c0.046-1.142-0.448-2.239-1.289-3.007c-8.252-7.512-8.709-24.73,5.237-26.951l0.009-0.238c0.466,0,0.914,0.018,1.343,0.046
			c0.155,0.009,0.301,0.009,0.448,0c0.439-0.027,0.886-0.046,1.343-0.046l0.009,0.238c13.946,2.221,13.489,19.438,5.237,26.951
			c-0.841,0.768-1.325,1.864-1.288,3.007c0.073,2.285,1.206,5.721,7.092,6.415c9.002,1.051,10.793,2.797,12.593,6.425
			c0.887,1.773-3.089,10.217-7.366,18.351C115.07,255.01,114.622,266.625,119.027,276.806z"/>
		<path style="fill:#407BFF;" d="M119.027,276.806c3.893,8.983,7.878,21.303,8.59,35.057c0.101,1.956-1.215,3.628-3.016,4.103
			H80.178c-1.8-0.475-3.107-2.148-3.007-4.103c0.704-13.754,4.688-26.073,8.582-35.057c4.405-10.181,3.957-21.796-1.197-31.612
			c-4.277-8.134-8.252-16.578-7.375-18.351c1.801-3.628,3.601-5.374,12.593-6.425c5.886-0.695,7.019-4.131,7.092-6.415
			c0.046-1.142-0.448-2.239-1.289-3.007c-8.252-7.512-8.709-24.73,5.237-26.951l0.009-0.238c0.466,0,0.914,0.018,1.343,0.046
			c0.155,0.009,0.301,0.009,0.448,0c0.439-0.027,0.886-0.046,1.343-0.046l0.009,0.238c13.946,2.221,13.489,19.438,5.237,26.951
			c-0.841,0.768-1.325,1.864-1.288,3.007c0.073,2.285,1.206,5.721,7.092,6.415c9.002,1.051,10.793,2.797,12.593,6.425
			c0.887,1.773-3.089,10.217-7.366,18.351C115.07,255.01,114.622,266.625,119.027,276.806z"/>
		<path style="opacity:0.7;fill:#FFFFFF;" d="M119.027,276.806c3.893,8.983,7.878,21.303,8.59,35.057
			c0.101,1.956-1.215,3.628-3.016,4.103H80.178c-1.8-0.475-3.107-2.148-3.007-4.103c0.704-13.754,4.688-26.073,8.582-35.057
			c4.405-10.181,3.957-21.796-1.197-31.612c-4.277-8.134-8.252-16.578-7.375-18.351c1.801-3.628,3.601-5.374,12.593-6.425
			c5.886-0.695,7.019-4.131,7.092-6.415c0.046-1.142-0.448-2.239-1.289-3.007c-8.252-7.512-8.709-24.73,5.237-26.951l0.009-0.238
			c0.466,0,0.914,0.018,1.343,0.046c0.155,0.009,0.301,0.009,0.448,0c0.439-0.027,0.886-0.046,1.343-0.046l0.009,0.238
			c13.946,2.221,13.489,19.438,5.237,26.951c-0.841,0.768-1.325,1.864-1.288,3.007c0.073,2.285,1.206,5.721,7.092,6.415
			c9.002,1.051,10.793,2.797,12.593,6.425c0.887,1.773-3.089,10.217-7.366,18.351C115.07,255.01,114.622,266.625,119.027,276.806z"
			/>
	</g>
</g>
<g id="Speech_bubble">
	<g>
		<g>
			<path style="fill:#407BFF;" d="M302.367,76.748h-37.071c-7.04,0-12.747,5.707-12.747,12.747v36.028
				c0,7.04,5.707,12.747,12.747,12.747h2.553l0.231,9.458l8.343-9.458h25.945c7.04,0,12.746-5.707,12.746-12.747V89.495
				C315.114,82.455,309.407,76.748,302.367,76.748z"/>
		</g>
		<g>
			<polygon style="opacity:0.7;fill:#FFFFFF;" points="297.349,124.779 270.313,124.779 272.313,100.492 271.313,95.672 
				296.349,95.672 295.349,100.492 			"/>
			<path style="fill:#FFFFFF;" d="M291.249,97.267c-0.209-4.949-3.451-8.896-7.418-8.896c-3.967,0-7.209,3.948-7.419,8.896
				c-0.161,0.114-0.273,0.292-0.273,0.504c0,0.347,0.281,0.628,0.628,0.628c0.347,0,0.628-0.281,0.628-0.628
				c0-0.195-0.094-0.363-0.234-0.478c0.193-4.548,3.106-8.173,6.67-8.173c3.564,0,6.476,3.625,6.67,8.173
				c-0.139,0.115-0.234,0.283-0.234,0.478c0,0.347,0.281,0.628,0.628,0.628c0.346,0,0.628-0.281,0.628-0.628
				C291.523,97.558,291.411,97.38,291.249,97.267z"/>
		</g>
		<g>
			<path style="fill:#263238;" d="M306.474,110.226c0,3.764-3.052,6.816-6.816,6.816c-3.764,0-6.816-3.052-6.816-6.816
				c0-3.764,3.052-6.816,6.816-6.816C303.422,103.409,306.474,106.461,306.474,110.226z"/>
			<polyline style="fill:none;stroke:#FFFFFF;stroke-linecap:round;stroke-linejoin:round;stroke-miterlimit:10;" points="
				295.785,109.358 298.934,112.507 303.53,107.945 			"/>
		</g>
	</g>
</g>
<g id="Character">
	<g>
		<polygon style="fill:#E4897B;" points="281.465,175.286 277.448,190.761 284.633,191.614 286.353,177.493 		"/>
		<g>
			<path style="fill:#407BFF;" d="M226.359,400.14l1.149,0.974l1.523-1.146l2.342,4.943l9.626,8.179c0,0,2.838-0.238-0.704-5.36
				c-0.161-0.233-0.309-0.497-0.438-0.8c-1.471-3.223-1.66-10.05-1.66-10.05l-5.282-4.488c0,0-0.409,0.108-1.08,0.394
				C230.27,393.457,227.201,395.05,226.359,400.14z"/>
			<path style="opacity:0.2;" d="M226.359,400.14l1.149,0.974l1.523-1.146l2.342,4.943l9.626,8.179c0,0,2.838-0.238-0.704-5.36
				c-0.161-0.233-0.309-0.497-0.438-0.8c-1.471-3.223-1.66-10.05-1.66-10.05l-5.282-4.488c0,0-0.409,0.108-1.08,0.394
				C230.27,393.457,227.201,395.05,226.359,400.14z"/>
			<path style="fill:#E4897B;" d="M231.835,392.786c-0.007,0.008-0.014,0.016-0.014,0.016c1.358-0.185,1.631,5.926,2.968,9.063
				c1.197,2.798,3.142,5.236,5.068,5.065c-1.471-3.223-1.063-11.494-1.063-11.494l-4.247-3.609
				C234.546,391.827,232.505,392.5,231.835,392.786z"/>
			<path style="opacity:0.2;" d="M231.835,392.786c-0.007,0.008-0.014,0.016-0.014,0.016c1.358-0.185,1.631,5.926,2.968,9.063
				c1.197,2.798,3.142,5.236,5.068,5.065c-1.471-3.223-1.063-11.494-1.063-11.494l-4.247-3.609
				C234.546,391.827,232.505,392.5,231.835,392.786z"/>
		</g>
		<g>
			<path style="fill:#407BFF;" d="M226.079,414.947l1.506-0.002l0.418-1.859l4.985,2.251h12.632c0,0,2.009-2.019-4.007-3.628
				c-0.274-0.074-0.558-0.179-0.852-0.326c-3.208-1.504-7.772-6.584-7.772-6.584h-6.931c0,0-0.242,0.347-0.568,0.999
				C224.733,407.322,223.425,410.522,226.079,414.947z"/>
			<path style="fill:#E4897B;" d="M225.49,405.797c0,0.01,0,0.021,0,0.021c0.915-1.02,5.08,3.461,8.13,4.985
				c2.724,1.357,5.785,1.956,7.141,0.578c-3.208-1.504-8.252-8.071-8.252-8.071h-5.574
				C226.936,403.31,225.816,405.145,225.49,405.797z"/>
		</g>
		<path style="fill:#E4897B;" d="M284.819,178.968l10.487-2.454l-5.214-7.05c0,0-9.621,2.032-8.628,5.823L284.819,178.968z"/>
		<path style="fill:#407BFF;" d="M286.874,179.578c0,0-0.397,35.45-8.276,35.45c-4.364,0-9.311-2.843-13.521-6.061
			c-5.532-4.231-9.796-9.135-9.796-9.135l-0.022-0.121l-2.711-16.463c7.747-0.187,21.268,17.565,21.268,17.565l6.523-22.491
			L286.874,179.578z"/>
		<path style="opacity:0.2;" d="M265.078,208.967c-5.532-4.231-9.796-9.135-9.796-9.135l-0.022-0.121l2.523-5.642
			C257.783,194.068,264.56,199.721,265.078,208.967z"/>
		<path style="fill:#263238;" d="M220.731,143.939c0,0,2.46-4.25,9.51-4.977c7.051-0.727,16.394,3.042,17.825,13.799
			c1.431,10.758,4.483,16.661,4.483,16.661s-22.706,5.934-29.081,3.794C217.093,171.075,207.221,147.026,220.731,143.939z"/>
		<g>
			<path style="fill:#263238;" d="M267.813,332.477c-3.18,6.335-6.384,13.16-9.448,19.981c-4.036,9.003-7.83,18.018-11.055,26.085
				c-2.308,5.756-5.311,13.023-6.892,17.416c-4.939-0.523-7.25-2.379-9.209-3.907c1.179-7.911,4.34-28.442,10.308-46.511
				c3.139-9.505,7.052-18.884,11.871-26.521c-22.543-58.132-18.177-80.332-18.177-80.332l23.914-1.832c0,0,4.316,21.784,7.93,44.15
				c0,0,0,0,0,0.01c1.884,11.726,3.573,23.608,4.35,32.598l0.003,0.09C271.963,320.178,270.729,326.671,267.813,332.477z"/>
			<path style="opacity:0.2;" d="M247.074,301.715c-3.349-9.896-5.81-18.48-7.588-25.852c1.346-5.854,3.362-10.892,6.223-13.974
				C245.709,261.889,250.476,277.925,247.074,301.715z"/>
			<path style="opacity:0.2;" d="M247.309,378.543c-2.308,5.756-5.311,13.023-6.892,17.416c-4.939-0.523-7.25-2.379-9.209-3.907
				c1.179-7.911,4.34-28.442,10.308-46.511C243.575,355.22,245.926,367.462,247.309,378.543z"/>
		</g>
		<g>
			<path style="fill:#263238;" d="M249.483,234.521c0,0-6.974,53.967-10.971,79.938c-4.198,27.276-4.731,71.042-3.681,88.878
				c-1.528,0.888-7.097,1.961-10.107,1.02c0,0-14.223-55.164-4.776-87.204c-8.603-63.11,3.847-78.565,3.847-78.565L249.483,234.521z
				"/>
		</g>
		<path style="opacity:0.7;fill:#FFFFFF;" d="M247.159,200.542c-10.259-9.631-23.141-16.132-23.141-16.132
			c0.76-0.088,1.543-0.165,2.325-0.232c5.895-0.485,10.722-0.837,15.978-0.54c1.322,0.077,2.678,0.187,4.011,0.298v0.011
			C249.638,191.517,247.159,200.542,247.159,200.542z"/>
		<g>
			<path style="fill:#263238;" d="M224.018,234.521l34.872-2.351c0,0,1.048,10.472,0.805,10.322
				c-0.243-0.15-37.327,1.308-37.327,1.308L224.018,234.521z"/>
			<polygon points="224.334,235.097 258.841,233.191 258.841,236.461 224.018,238.313 			"/>
			<path style="fill:none;stroke:#FFFFFF;stroke-width:0.6753;stroke-miterlimit:10;" d="M243.098,236.91l-0.15-1.918
				c-0.029-0.365,0.244-0.684,0.609-0.712l3.779-0.295c0.385-0.03,0.714,0.274,0.714,0.661v2.019c0,0.352-0.276,0.643-0.628,0.662
				l-3.63,0.193C243.435,237.539,243.126,237.269,243.098,236.91z"/>
			<path style="fill:#407BFF;" d="M224.018,234.521c-0.727-8.187-3.658-23.191-8.705-38.949c-1.642-5.124,1.143-10.909,1.143-10.909
				s6.869-0.176,7.563-0.253c0.76-0.088,1.543-0.165,2.325-0.232c5.895-0.485,10.722-0.837,15.978-0.54
				c1.322,0.077,2.678,0.187,4.011,0.298c0.43,0.044,5.259,0.088,5.678,0.132c0,0,6.686,7.648,7.094,13.84
				c0.22,3.46,0.738,6.072,0.551,14.347c-0.033,5.62-0.814,20.936-0.814,20.936c-1.071,5.921-13.137,0.501-13.137,0.501
				C228.286,242.318,224.018,234.521,224.018,234.521z"/>
			<path style="opacity:0.8;fill:#FFFFFF;" d="M224.018,234.521c-0.727-8.187-3.658-23.191-8.705-38.949
				c-1.642-5.124,1.143-10.909,1.143-10.909s6.869-0.176,7.563-0.253c0.76-0.088,1.543-0.165,2.325-0.232
				c5.895-0.485,10.722-0.837,15.978-0.54c1.322,0.077,2.678,0.187,4.011,0.298c0.43,0.044,5.259,0.088,5.678,0.132
				c0,0,6.686,7.648,7.094,13.84c0.22,3.46,0.738,6.072,0.551,14.347c-0.033,5.62-0.814,20.936-0.814,20.936
				c-1.071,5.921-13.137,0.501-13.137,0.501C228.286,242.318,224.018,234.521,224.018,234.521z"/>
			<path style="opacity:0.2;" d="M243.539,199.141c0,0.3-0.243,0.544-0.544,0.544c-0.3,0-0.544-0.243-0.544-0.544
				s0.243-0.544,0.544-0.544C243.296,198.597,243.539,198.84,243.539,199.141z"/>
			<path style="opacity:0.2;" d="M245.525,210.641c0,0.3-0.243,0.544-0.544,0.544s-0.544-0.243-0.544-0.544
				c0-0.3,0.243-0.544,0.544-0.544S245.525,210.341,245.525,210.641z"/>
			<circle style="opacity:0.2;" cx="245.525" cy="221.612" r="0.544"/>
			<circle style="opacity:0.2;" cx="246.069" cy="232.169" r="0.544"/>
		</g>
		<path style="fill:#407BFF;" d="M226.851,258.477l-12.055-2.182l7.02-25.928c0,0-1.796-6.436-3.78-13.818
			c-0.959-3.592-1.961-7.405-2.81-10.799c-1.234-4.893-2.16-8.948-2.226-10.27c-0.22-4.132,3.46-10.821,3.46-10.821l5.357-0.868
			c0,0,11.282,8.218,11.8,25.001C234.135,225.562,226.851,258.477,226.851,258.477z"/>
		<path style="fill:#407BFF;" d="M249.043,183.253c0,0,3.549,13.175,5.293,22.911c1.744,9.736,6.539,51.149,6.539,51.149
			l2.616-1.308l-3.633-24.703c0,0,1.308-28.636,0.291-34.516c-1.017-5.88-7.6-13.533-7.6-13.533H249.043z"/>
		<g>
			<path style="fill:#E4897B;" d="M244.383,185.892c1.686,6.143-1.939,11.57-1.939,11.57c-10.765-3.394-15.218-13.311-15.218-13.311
				c3.218-3.548,1.19-12.904-0.375-18.006l4.309,3.229l6.413,4.794c-0.154,1.069-0.011,2.534,0.309,3.945
				c0.485,2.039,1.355,3.956,2.314,4.364L244.383,185.892z"/>
			<path style="opacity:0.2;" d="M237.882,178.112c-2.557-0.573-5.906-3.218-6.447-5.829c-0.22-1.102-0.319-2.182-0.275-2.909
				l6.413,4.794C237.419,175.236,237.562,176.702,237.882,178.112z"/>
		</g>
		<g>
			<path style="fill:#E4897B;" d="M222.11,155.981c1.843,8.248,2.448,11.769,7.321,15.589c7.33,5.746,17.011,2.243,17.658-6.252
				c0.582-7.646-2.53-19.85-11.178-22.299C227.391,140.606,220.267,147.732,222.11,155.981z"/>
			<path style="fill:#263238;" d="M232.759,157.002c0.125,0.699,0.59,1.226,1.038,1.178c0.449-0.049,0.711-0.654,0.586-1.353
				c-0.125-0.699-0.59-1.226-1.038-1.178C232.897,155.697,232.635,156.303,232.759,157.002z"/>
			<path style="fill:#263238;" d="M241.465,155.789c0.125,0.699,0.59,1.226,1.038,1.178c0.449-0.049,0.711-0.654,0.586-1.354
				c-0.125-0.699-0.59-1.226-1.038-1.178C241.603,154.484,241.341,155.09,241.465,155.789z"/>
			<path style="fill:#263238;" d="M241.861,154.496l1.562-0.662C243.423,153.834,242.811,155.236,241.861,154.496z"/>
			<path style="fill:#DE5753;" d="M239.073,157.613c0,0,1.702,2.883,3.243,4.196c-0.752,0.959-2.363,0.732-2.363,0.732
				L239.073,157.613z"/>
			<path style="fill:#263238;" d="M230.688,152.761c0.108-0.002,0.212-0.047,0.285-0.134c1.132-1.357,2.634-1.126,2.651-1.123
				c0.223,0.035,0.424-0.115,0.445-0.34c0.02-0.225-0.146-0.437-0.371-0.475c-0.079-0.012-1.964-0.304-3.368,1.38
				c-0.14,0.168-0.109,0.429,0.068,0.583C230.482,152.727,230.587,152.763,230.688,152.761z"/>
			<path style="fill:#263238;" d="M244.225,150.801c0.102,0.011,0.205-0.015,0.287-0.082c0.169-0.139,0.184-0.398,0.034-0.579
				c-1.505-1.814-3.379-1.694-3.458-1.688c-0.224,0.017-0.378,0.215-0.344,0.442c0.033,0.227,0.241,0.397,0.465,0.381
				c0.073-0.006,1.529-0.077,2.725,1.366C244.012,150.735,244.118,150.789,244.225,150.801z"/>
			<path style="fill:#263238;" d="M233.154,155.709l1.562-0.662C234.717,155.046,234.105,156.449,233.154,155.709z"/>
			<path style="fill:#263238;" d="M226.343,160.758c0,0,4.054-5.908,0.962-14.651c0,0,9.171-4.445,16.117,2.342
				c0,0-6.46-11.335-19.955-5.906c-13.495,5.429-3.321,18.385-1.651,19.463C223.487,163.083,226.343,160.758,226.343,160.758z"/>
			<path style="fill:#E4897B;" d="M220.464,163.11c1.207,1.585,2.948,2.452,4.465,2.631c2.281,0.268,2.936-2.035,1.896-4.151
				c-0.936-1.905-3.252-4.34-5.346-3.628C219.416,158.665,219.084,161.298,220.464,163.11z"/>
			<g>
				<path style="fill:#263238;" d="M240.432,164.459c-0.544,1.134-1.099,3.266-1.099,3.266c-0.202-0.015-0.405-0.031-0.605-0.057
					c-2.738-0.279-3.916-1.312-4.392-2.374c-0.258-0.582-0.299-1.178-0.269-1.658c0.029-0.556,0.176-0.945,0.176-0.945
					c1.363,1.015,3.896,1.471,5.258,1.658C240.07,164.434,240.432,164.459,240.432,164.459z"/>
				<path style="fill:#FFFFFF;" d="M239.5,164.35l-0.349,0.954c-2.578-0.269-4.357-0.804-5.085-1.667
					c0.029-0.556,0.176-0.945,0.176-0.945C235.605,163.706,238.137,164.162,239.5,164.35z"/>
				<path style="fill:#DE5753;" d="M238.727,167.668c-2.738-0.279-3.916-1.312-4.392-2.374c0.929,0.131,2.035,0.392,2.979,0.912
					C238.037,166.601,238.462,167.14,238.727,167.668z"/>
			</g>
		</g>
		<path style="opacity:0.2;" d="M219.634,214.553c-0.364,0.926-0.926,1.565-1.598,1.994c-0.959-3.592-1.961-7.405-2.81-10.799
			c2.226-2.688,4.11-4.936,4.11-4.936S221.904,208.779,219.634,214.553z"/>
		<path style="fill:#407BFF;" d="M216.459,184.663c-4.771,0.576-19.375,36.847-18.503,42.579c0.872,5.732,32.285,3.124,32.285,3.124
			v-8.726l-18.335-3.695l6.347-12.446c0,0,1.911-5.806,1.379-11.18C219.098,188.944,216.459,184.663,216.459,184.663z"/>
		<g>
			<g>
				<g>
					<path style="fill:#407BFF;" d="M211.801,243.785c-0.053,0-0.106-0.012-0.157-0.039c-0.165-0.086-0.229-0.291-0.142-0.456
						c0.092-0.176,9.169-17.602,5.725-23.081c-0.71-1.129-1.897-1.652-3.626-1.588c-12.531,0.437-18.466,18.609-18.524,18.792
						c-0.057,0.178-0.246,0.274-0.424,0.219c-0.178-0.057-0.276-0.247-0.219-0.424c0.06-0.189,6.138-18.809,19.144-19.263
						c1.971-0.069,3.385,0.572,4.222,1.904c3.649,5.806-5.316,23.024-5.699,23.754C212.04,243.719,211.923,243.785,211.801,243.785z
						"/>
				</g>
				<g style="opacity:0.6;">
					<path style="fill:#FFFFFF;" d="M211.801,243.785c-0.053,0-0.106-0.012-0.157-0.039c-0.165-0.086-0.229-0.291-0.142-0.456
						c0.092-0.176,9.169-17.602,5.725-23.081c-0.71-1.129-1.897-1.652-3.626-1.588c-12.531,0.437-18.466,18.609-18.524,18.792
						c-0.057,0.178-0.246,0.274-0.424,0.219c-0.178-0.057-0.276-0.247-0.219-0.424c0.06-0.189,6.138-18.809,19.144-19.263
						c1.971-0.069,3.385,0.572,4.222,1.904c3.649,5.806-5.316,23.024-5.699,23.754C212.04,243.719,211.923,243.785,211.801,243.785z
						"/>
				</g>
				<polygon style="fill:#263238;" points="189.595,233.361 169.91,274.495 172.942,286.862 207.457,298.654 223.821,249.234 
					219.302,244.633 218.873,241.937 				"/>
				<polygon style="opacity:0.2;fill:#FFFFFF;" points="189.595,233.361 169.91,274.495 172.942,286.862 207.457,298.654 
					223.821,249.234 194.442,242.208 194.725,238.667 				"/>
				<polygon style="opacity:0.1;fill:#FFFFFF;" points="194.439,242.205 194.723,238.667 189.598,233.359 218.87,241.935 
					219.302,244.636 223.82,249.234 				"/>
				<polygon style="opacity:0.2;fill:#FFFFFF;" points="194.442,242.208 172.942,286.862 207.457,298.654 223.821,249.234 				"/>
				<polygon style="opacity:0.1;fill:#FFFFFF;" points="194.725,238.667 174.978,275.218 169.91,274.495 172.942,286.862 
					175.533,275.93 				"/>
				<path style="fill:#407BFF;" d="M214.222,217.8c-1.886-0.876-3.687-0.839-5.353,0.105c-7.286,4.136-9.782,24.446-10.074,27.051
					c-0.246,0.105-0.419,0.35-0.419,0.634c0,0.381,0.309,0.69,0.69,0.69c0.381,0,0.69-0.309,0.69-0.69
					c0-0.229-0.119-0.422-0.291-0.548c0.278-2.397,2.816-22.622,9.736-26.55c1.486-0.843,3.034-0.87,4.735-0.081
					c10.269,4.764,3.027,27.303,1.714,31.121c-0.359,0.025-0.644,0.316-0.644,0.681c0,0.381,0.309,0.69,0.69,0.69
					c0.381,0,0.69-0.309,0.69-0.69c0-0.141-0.053-0.264-0.125-0.373C217.598,246.048,225.219,222.901,214.222,217.8z"/>
				<path style="opacity:0.7;fill:#FFFFFF;" d="M214.222,217.8c-1.886-0.876-3.687-0.839-5.353,0.105
					c-7.286,4.136-9.782,24.446-10.074,27.051c-0.246,0.105-0.419,0.35-0.419,0.634c0,0.381,0.309,0.69,0.69,0.69
					c0.381,0,0.69-0.309,0.69-0.69c0-0.229-0.119-0.422-0.291-0.548c0.278-2.397,2.816-22.622,9.736-26.55
					c1.486-0.843,3.034-0.87,4.735-0.081c10.269,4.764,3.027,27.303,1.714,31.121c-0.359,0.025-0.644,0.316-0.644,0.681
					c0,0.381,0.309,0.69,0.69,0.69c0.381,0,0.69-0.309,0.69-0.69c0-0.141-0.053-0.264-0.125-0.373
					C217.598,246.048,225.219,222.901,214.222,217.8z"/>
			</g>
			<g>
				
					<path style="fill:none;stroke:#263238;stroke-width:0.6753;stroke-linecap:round;stroke-linejoin:round;stroke-miterlimit:10;" d="
					M203.296,241.273c0,0-1.453-18.999,10.783-23.167c11.025-3.755,7.309,24.11,7.309,24.11"/>
				<polygon style="fill:#407BFF;" points="197.214,238.983 184.324,290.082 190.803,301.044 227.253,302.35 234.568,244.279 
					228.911,241.182 227.721,238.725 				"/>
				<polygon style="opacity:0.5;fill:#FFFFFF;" points="197.214,238.983 184.324,290.082 190.803,301.044 227.253,302.35 
					234.568,244.279 204.413,246.05 203.66,242.578 				"/>
				<polygon style="opacity:0.3;fill:#FFFFFF;" points="204.409,246.048 203.657,242.579 197.216,238.98 227.717,238.724 
					228.912,241.184 234.566,244.28 				"/>
				<polygon style="opacity:0.2;fill:#FFFFFF;" points="204.413,246.05 190.803,301.044 227.253,302.35 234.568,244.279 				"/>
				
					<path style="fill:none;stroke:#263238;stroke-width:0.6753;stroke-linecap:round;stroke-linejoin:round;stroke-miterlimit:10;" d="
					M227.144,247.545c0,0,1.889-27.571-10.756-29.365c-12.645-1.794-6.634,29.433-6.634,29.433"/>
				<polygon style="opacity:0.1;fill:#FFFFFF;" points="203.66,242.578 189.385,289.308 184.324,290.082 190.803,301.044 
					190.122,289.83 				"/>
				<path style="fill:#263238;" d="M210.478,247.751c0.11,0.365-0.096,0.75-0.461,0.86c-0.365,0.11-0.75-0.096-0.86-0.461
					c-0.11-0.365,0.096-0.75,0.461-0.86C209.983,247.18,210.368,247.386,210.478,247.751z"/>
				<path style="fill:#263238;" d="M227.735,247.366c0.11,0.365-0.096,0.75-0.461,0.86c-0.365,0.11-0.75-0.096-0.86-0.461
					c-0.11-0.365,0.096-0.75,0.461-0.86C227.24,246.795,227.625,247.001,227.735,247.366z"/>
			</g>
		</g>
		<g>
			
				<path style="fill:none;stroke:#263238;stroke-width:0.6753;stroke-linecap:round;stroke-linejoin:round;stroke-miterlimit:10;" d="
				M278.839,195.464c0,0-2.928-19.583,8.514-25.599c10.309-5.42,9.506,23.725,9.506,23.725"/>
			<polygon style="fill:#263238;" points="272.476,194.146 267.667,246.625 275.767,256.449 311.979,252.087 310.199,193.585 
				304.13,191.402 302.573,189.16 			"/>
			<polygon style="opacity:0.5;fill:#FFFFFF;" points="272.476,194.146 267.667,246.625 275.767,256.449 311.979,252.087 
				310.199,193.585 280.683,200.011 279.401,196.698 			"/>
			<polygon style="opacity:0.3;fill:#FFFFFF;" points="280.679,200.009 279.398,196.699 272.477,194.143 302.569,189.159 
				304.131,191.404 310.198,193.585 			"/>
			<polygon style="opacity:0.2;fill:#FFFFFF;" points="280.683,200.011 275.767,256.449 311.979,252.087 310.199,193.585 			"/>
			
				<path style="fill:none;stroke:#263238;stroke-width:0.6753;stroke-linecap:round;stroke-linejoin:round;stroke-miterlimit:10;" d="
				M303.371,197.962c0,0-1.922-30.484-14.48-28.159c-13.024,2.411-2.689,30.924-2.689,30.924"/>
			<polygon style="opacity:0.1;fill:#FFFFFF;" points="279.401,196.698 272.546,245.076 267.667,246.625 275.767,256.449 
				273.355,245.477 			"/>
			<path style="fill:#263238;" d="M286.939,200.75c0.165,0.343,0.021,0.756-0.322,0.921c-0.343,0.165-0.756,0.021-0.921-0.322
				c-0.165-0.343-0.021-0.756,0.322-0.921C286.361,200.263,286.773,200.407,286.939,200.75z"/>
			<path style="fill:#263238;" d="M303.927,197.694c0.166,0.343,0.021,0.756-0.322,0.921c-0.343,0.165-0.756,0.021-0.921-0.322
				c-0.165-0.343-0.021-0.756,0.322-0.921C303.349,197.206,303.762,197.351,303.927,197.694z"/>
		</g>
		<g>
			<path style="fill:#263238;" d="M246.253,215.914l0.203-1.681c0.048-0.052,0.102-0.097,0.145-0.155
				c0.76-1.012,0.619-2.656,0.41-3.975c-0.212-1.343-0.897-3.075-2.132-3.556c-0.011-0.004-0.019-0.007-0.029-0.011
				c0.179-0.403,0.225-0.79,0.12-1.147c-0.084-0.295-0.251-0.516-0.41-0.673c0.908-0.935,0.872-2.753,0.554-4.055
				c-0.337-1.378-0.828-2.872-1.914-3.508c-0.064-0.037-0.134-0.059-0.201-0.09l-0.826-1.454l-1.052,0.211l-0.078,1.214
				c-1.843,0.576-3.713,2.036-3.239,4.39c0.006,0.031,0.013,0.062,0.02,0.093c0.516,2.291,3.055,3.512,5.372,3.708
				c0.416,0.035,0.626,0.038,0.844-0.076c0.106,0.093,0.229,0.235,0.283,0.43c0.066,0.232,0.012,0.501-0.144,0.796
				c-0.204,0.01-0.397,0.098-0.727,0.27c-2.035,1.063-3.906,3.171-3.496,5.482c0.006,0.033,0.012,0.065,0.019,0.097
				c0.473,2.351,2.678,2.986,4.679,2.794l0.548,1.104L246.253,215.914z M243.222,204.551c-1.977-0.168-4.303-1.235-4.741-3.182
				c-0.471-2.005,1.22-3.266,2.942-3.746c0.566-0.158,1.035-0.121,1.434,0.113c0.874,0.511,1.314,1.918,1.6,3.086
				c0.018,0.074,0.036,0.154,0.053,0.239c0.193,0.961,0.276,2.509-0.459,3.218C243.725,204.594,243.725,204.594,243.222,204.551z
				 M244.782,214.33c-0.861,0.108-3.73,0.242-4.162-2.318c-0.348-1.965,1.385-3.848,3.17-4.78c0.421-0.22,0.421-0.22,0.844-0.055
				c0.952,0.37,1.474,1.83,1.667,2.791c0.017,0.084,0.032,0.165,0.043,0.241c0.188,1.188,0.326,2.655-0.283,3.464
				C245.783,214.042,245.365,214.257,244.782,214.33z"/>
			<path style="fill:#407BFF;" d="M244.824,214.665c-1.983,0.249-4.133-0.321-4.536-2.594c-0.378-2.132,1.429-4.137,3.32-5.125
				c0.555-0.29,0.574-0.308,1.149-0.084c1.168,0.454,1.751,2.213,1.921,3.293C247.008,212.249,247.029,214.388,244.824,214.665z"/>
			<path style="fill:#407BFF;" d="M241.333,197.298c-1.916,0.534-3.681,1.925-3.181,4.146c0.475,2.113,2.916,3.263,5.042,3.443
				c0.624,0.053,0.648,0.062,1.092-0.366c0.902-0.871,0.759-2.718,0.499-3.78C244.281,198.683,243.473,196.702,241.333,197.298z"/>
			<path style="fill:none;stroke:#263238;stroke-width:0.6753;stroke-miterlimit:10;" d="M245.704,215.027
				c0,0-2.983-11.978-3.695-12.379c-0.712-0.401-2.582-0.801-2.582-0.801"/>
			<path style="opacity:0.4;fill:#FFFFFF;" d="M244.824,214.665c-1.983,0.249-4.133-0.321-4.536-2.594
				c-0.378-2.132,1.429-4.137,3.32-5.125c0.555-0.29,0.574-0.308,1.149-0.084c1.168,0.454,1.751,2.213,1.921,3.293
				C247.008,212.249,247.029,214.388,244.824,214.665z"/>
			<path style="opacity:0.4;fill:#FFFFFF;" d="M241.333,197.298c-1.916,0.534-3.681,1.925-3.181,4.146
				c0.475,2.113,2.916,3.263,5.042,3.443c0.624,0.053,0.648,0.062,1.092-0.366c0.902-0.871,0.759-2.718,0.499-3.78
				C244.281,198.683,243.473,196.702,241.333,197.298z"/>
		</g>
		<g>
			<g>
				<path style="fill:#263238;" d="M286.171,196.968c-0.132,0-0.257-0.077-0.311-0.206c-0.381-0.903-9.19-22.179,2.753-27.574
					c1.515-0.684,3.026-0.653,4.493,0.093c6.771,3.444,10.518,21.082,10.674,21.832c0.038,0.182-0.079,0.361-0.262,0.399
					c-0.183,0.041-0.362-0.079-0.399-0.262c-0.038-0.18-3.835-18.07-10.319-21.367c-1.293-0.658-2.572-0.684-3.908-0.079
					c-11.349,5.126-2.5,26.482-2.409,26.697c0.072,0.172-0.008,0.37-0.18,0.442C286.259,196.96,286.215,196.968,286.171,196.968z"/>
			</g>
			<g style="opacity:0.7;">
				<path style="fill:#FFFFFF;" d="M286.171,196.968c-0.132,0-0.257-0.077-0.311-0.206c-0.381-0.903-9.19-22.179,2.753-27.574
					c1.515-0.684,3.026-0.653,4.493,0.093c6.771,3.444,10.518,21.082,10.674,21.832c0.038,0.182-0.079,0.361-0.262,0.399
					c-0.183,0.041-0.362-0.079-0.399-0.262c-0.038-0.18-3.835-18.07-10.319-21.367c-1.293-0.658-2.572-0.684-3.908-0.079
					c-11.349,5.126-2.5,26.482-2.409,26.697c0.072,0.172-0.008,0.37-0.18,0.442C286.259,196.96,286.215,196.968,286.171,196.968z"/>
			</g>
			<polygon style="fill:#407BFF;" points="279.672,196.615 288.939,241.264 298.845,249.265 333.447,237.729 316.516,188.501 
				310.133,187.579 308.158,185.695 			"/>
			<polygon style="opacity:0.2;fill:#FFFFFF;" points="279.672,196.615 288.939,241.264 298.845,249.265 333.447,237.729 
				316.516,188.501 288.888,200.715 286.968,197.727 			"/>
			<polygon style="opacity:0.1;fill:#FFFFFF;" points="288.884,200.714 286.965,197.728 279.672,196.612 308.154,185.695 
				310.135,187.582 316.515,188.502 			"/>
			<polygon style="opacity:0.2;fill:#FFFFFF;" points="288.888,200.715 298.845,249.265 333.447,237.729 316.516,188.501 			"/>
			<polygon style="opacity:0.1;fill:#FFFFFF;" points="286.968,197.727 293.409,238.768 288.939,241.264 298.845,249.265 
				294.282,238.999 			"/>
			<path style="fill:#263238;" d="M311.196,193.784c-0.086-0.113-0.203-0.179-0.327-0.222c-1.262-3.868-9.464-27.396-21.312-24.781
				c-2.003,0.441-3.398,1.549-4.144,3.294c-3.328,7.782,7.241,25.905,8.604,28.187c-0.132,0.233-0.122,0.532,0.051,0.759
				c0.231,0.303,0.664,0.362,0.967,0.131c0.303-0.231,0.362-0.664,0.131-0.967c-0.139-0.182-0.35-0.264-0.562-0.259
				c-1.244-2.099-11.733-20.188-8.57-27.584c0.665-1.555,1.865-2.503,3.668-2.9c11.059-2.432,19.186,20.334,20.495,24.249
				c-0.269,0.237-0.32,0.641-0.099,0.931c0.231,0.303,0.664,0.362,0.967,0.131C311.368,194.52,311.427,194.087,311.196,193.784z"/>
			<path style="opacity:0.8;fill:#FFFFFF;" d="M311.196,193.784c-0.086-0.113-0.203-0.179-0.327-0.222
				c-1.262-3.868-9.464-27.396-21.312-24.781c-2.003,0.441-3.398,1.549-4.144,3.294c-3.328,7.782,7.241,25.905,8.604,28.187
				c-0.132,0.233-0.122,0.532,0.051,0.759c0.231,0.303,0.664,0.362,0.967,0.131c0.303-0.231,0.362-0.664,0.131-0.967
				c-0.139-0.182-0.35-0.264-0.562-0.259c-1.244-2.099-11.733-20.188-8.57-27.584c0.665-1.555,1.865-2.503,3.668-2.9
				c11.059-2.432,19.186,20.334,20.495,24.249c-0.269,0.237-0.32,0.641-0.099,0.931c0.231,0.303,0.664,0.362,0.967,0.131
				C311.368,194.52,311.427,194.087,311.196,193.784z"/>
		</g>
		<polygon style="fill:#E4897B;" points="298.845,168.422 291.517,166.145 287.353,172.685 295.306,176.514 		"/>
		<g>
			<path style="fill:#E4897B;" d="M236.959,220.57l-7.171,2.053l-1.502,4.749c0.688,3.858,8.108,2.211,8.108,2.211l1.52,0.958
				c1.234,0.777,2.863,0.055,3.115-1.382l0.788-4.488c0.131-0.747-0.161-1.506-0.759-1.973l-2.272-1.772
				C238.268,220.521,237.589,220.39,236.959,220.57z"/>
			<path style="fill:#407BFF;" d="M201.853,212.266c-2.516,6.887-4.212,12.911-3.898,14.975c0.872,5.732,32.285,3.124,32.285,3.124
				v-8.726l-18.335-3.695L201.853,212.266z"/>
			<g>
				<path style="fill:#407BFF;" d="M196.348,233.698c-0.048,0-0.096-0.01-0.141-0.031c-0.169-0.078-0.243-0.279-0.165-0.448
					c2.575-5.565,8.279-14.949,17.536-15.273c0.189,0.002,0.343,0.14,0.349,0.326c0.007,0.187-0.139,0.343-0.325,0.35
					c-8.897,0.311-14.437,9.456-16.947,14.881C196.597,233.626,196.475,233.698,196.348,233.698z"/>
			</g>
			<g style="opacity:0.6;">
				<path style="fill:#FFFFFF;" d="M196.348,233.698c-0.048,0-0.096-0.01-0.141-0.031c-0.169-0.078-0.243-0.279-0.165-0.448
					c2.575-5.565,8.279-14.949,17.536-15.273c0.189,0.002,0.343,0.14,0.349,0.326c0.007,0.187-0.139,0.343-0.325,0.35
					c-8.897,0.311-14.437,9.456-16.947,14.881C196.597,233.626,196.475,233.698,196.348,233.698z"/>
			</g>
			<g>
				<path style="fill:#407BFF;" d="M200.378,237.518c-0.022,0-0.044-0.002-0.067-0.007c-0.183-0.036-0.301-0.214-0.265-0.397
					c1.496-7.484,4.286-16.915,9.079-19.348c1.593-0.808,3.307-0.798,5.095,0.032c0.169,0.078,0.243,0.279,0.164,0.448
					c-0.078,0.169-0.278,0.244-0.449,0.164c-1.613-0.748-3.086-0.762-4.505-0.042c-4.552,2.31-7.256,11.541-8.723,18.878
					C200.677,237.408,200.536,237.518,200.378,237.518z"/>
			</g>
			<g style="opacity:0.7;">
				<path style="fill:#FFFFFF;" d="M200.378,237.518c-0.022,0-0.044-0.002-0.067-0.007c-0.183-0.036-0.301-0.214-0.265-0.397
					c1.496-7.484,4.286-16.915,9.079-19.348c1.593-0.808,3.307-0.798,5.095,0.032c0.169,0.078,0.243,0.279,0.164,0.448
					c-0.078,0.169-0.278,0.244-0.449,0.164c-1.613-0.748-3.086-0.762-4.505-0.042c-4.552,2.31-7.256,11.541-8.723,18.878
					C200.677,237.408,200.536,237.518,200.378,237.518z"/>
			</g>
			
				<path style="fill:none;stroke:#263238;stroke-width:0.6753;stroke-linecap:round;stroke-linejoin:round;stroke-miterlimit:10;" d="
				M203.413,235.73c0.546-5.951,2.718-14.916,10.667-17.624"/>
			
				<path style="fill:none;stroke:#263238;stroke-width:0.6753;stroke-linecap:round;stroke-linejoin:round;stroke-miterlimit:10;" d="
				M216.387,218.18c-12.645-1.794-6.634,29.433-6.634,29.433"/>
		</g>
	</g>
</g>
</svg>
